<svg version="1.1" id="Layer_1" xmlns="http://www.w3.org/2000/svg" xmlns:xlink="http://www.w3.org/1999/xlink" x="0px" y="0px"
	 width="100%" viewBox="0 0 136 136" enable-background="new 0 0 136 136" xml:space="preserve">
<path fill="#F5F5F5" opacity="1.000000" stroke="none" 
	d="
M28.023554,17.000000 
	C56.785072,17.000000 85.049553,17.000000 114.889214,17.000000 
	C107.277718,24.078239 100.752518,30.270178 94.035370,36.246368 
	C93.128525,37.053181 91.257362,36.966480 89.831772,36.970673 
	C74.006470,37.017181 58.180984,36.999996 42.355549,37.000019 
	C40.731922,37.000023 39.108292,37.000019 37.000000,37.000019 
	C37.000000,47.706699 37.000000,57.985119 37.000000,68.263542 
	C37.000000,72.761299 36.342728,77.378746 37.135532,81.732124 
	C38.835438,91.066475 34.234470,97.366432 28.211767,103.310287 
	C24.774984,106.702087 21.455860,110.213112 17.441572,114.328880 
	C17.441572,81.539154 17.441572,49.603157 17.441572,17.000000 
	C20.666117,17.000000 24.096315,17.000000 28.023554,17.000000 
z"/>
<path fill="#666666" opacity="1.000000" stroke="none"
	d="
M107.622818,41.876617 
	C111.826271,37.694168 115.754593,33.771519 120.628807,28.904346 
	C120.628807,60.332394 120.628807,90.190445 120.628807,120.524994 
	C90.503578,120.524994 60.321095,120.524994 28.970812,120.524994 
	C34.437931,115.144585 39.344936,110.129944 44.518185,105.406921 
	C45.379547,104.620529 47.399979,105.015770 48.885002,105.013847 
	C65.531036,104.992340 82.177109,105.000008 98.823174,104.999832 
	C100.621590,104.999809 102.420006,104.999832 104.999855,104.999832 
	C104.999855,102.598083 104.999832,100.672302 104.999855,98.746521 
	C105.000038,82.100456 104.912689,65.453384 105.104507,48.809528 
	C105.130241,46.576839 106.565262,44.360394 107.622818,41.876617 
z"/>
<path fill="#666666" opacity="1.000000" stroke="none" 
	d="
M85.000000,71.991867 
	C85.000000,76.436218 85.000000,80.383842 85.000000,84.657730 
	C75.536293,84.657730 66.655373,84.657730 57.385994,84.657730 
	C57.385994,75.628281 57.385994,66.746445 57.385994,57.429718 
	C66.281471,57.429718 75.164963,57.429718 85.000000,57.429718 
	C85.000000,62.019169 85.000000,66.757149 85.000000,71.991867 
z"/>
</svg>