<svg version="1.1" id="Layer_1" xmlns="http://www.w3.org/2000/svg" xmlns:xlink="http://www.w3.org/1999/xlink" x="0px" y="0px"
	 width="100%" viewBox="0 0 750 750" enable-background="new 0 0 750 750" xml:space="preserve">
<path fill="#D9DBF1" opacity="1.000000" stroke="none" 
	d="
M350.000000,751.000000 
	C233.333328,751.000000 117.166664,751.000000 1.000000,751.000000 
	C1.000000,501.000000 1.000000,251.000000 1.000000,1.000000 
	C251.000000,1.000000 501.000000,1.000000 751.000000,1.000000 
	C751.000000,251.000000 751.000000,501.000000 751.000000,751.000000 
	C617.500000,751.000000 484.000000,751.000000 350.000000,751.000000 
M242.121353,436.979370 
	C239.799301,437.646759 237.477249,438.314148 235.042053,438.323944 
	C234.976990,437.885010 234.911911,437.446075 234.978790,436.222260 
	C233.619324,433.776123 232.856781,430.254547 230.779541,429.101685 
	C226.056274,426.480164 220.828430,424.404572 215.555984,423.198730 
	C192.937378,418.025696 170.006821,417.605133 147.132721,420.793152 
	C137.854156,422.086334 128.771713,425.095215 119.758415,427.842957 
	C115.716202,429.075256 112.990463,432.137177 114.032532,437.796722 
	C113.973595,439.058685 113.914658,440.320648 113.208481,441.913086 
	C112.212616,444.283997 111.216751,446.654938 110.086487,449.883331 
	C110.220856,452.424133 110.355225,454.964905 110.030968,458.225800 
	C106.653931,463.101593 107.730049,468.016602 110.995384,472.094940 
	C113.287941,474.958282 116.568810,477.523071 119.945877,478.940186 
	C134.729370,485.143738 150.579941,485.961792 166.295029,486.811615 
	C174.215530,487.239960 182.207855,486.175964 190.172409,485.999634 
	C198.377274,485.817993 199.099060,486.487335 198.966217,494.693024 
	C198.887863,499.532227 200.884735,502.799713 204.770813,505.481720 
	C212.261185,510.651367 220.906937,512.991821 229.545746,513.711426 
	C246.567993,515.129395 263.714172,516.035339 280.775116,515.649536 
	C291.089661,515.416321 301.510834,512.995850 311.550476,510.310730 
	C316.862946,508.889923 323.513916,507.457275 325.509521,499.654510 
	C327.404114,497.394318 328.859833,494.313568 331.272980,493.022949 
	C339.544373,488.599182 340.274475,487.800201 339.948730,477.286072 
	C340.358032,472.735565 336.480774,471.424347 334.311096,468.586273 
	C335.338684,468.085724 336.327606,467.472992 337.400269,467.103180 
	C343.438293,465.021606 349.758026,463.528748 355.435760,460.728271 
	C358.214996,459.357483 359.813477,455.592804 362.228699,452.259033 
	C363.966370,449.355652 364.892242,446.286926 369.009430,444.921356 
	C377.477570,442.112671 378.313690,440.100250 377.968140,430.217255 
	C378.552490,426.474182 376.780182,423.985718 373.660797,422.272461 
	C371.532104,421.103302 369.352417,420.026978 367.617584,418.300903 
	C368.024353,415.194458 368.431091,412.088013 368.969635,408.171204 
	C369.815216,403.847168 367.662537,401.066345 364.022430,399.427826 
	C360.248871,397.729218 356.400452,395.994354 352.402771,395.029327 
	C327.161652,388.936188 301.657928,388.429962 276.145203,392.771698 
	C268.369904,394.094940 260.794006,396.865631 253.307068,399.488159 
	C249.718811,400.745056 247.160172,403.560822 248.032059,408.821503 
	C248.014847,409.874542 247.997650,410.927612 247.373795,412.371887 
	C246.637115,414.921936 245.900452,417.471985 245.031418,420.884460 
	C243.919601,425.951569 246.137543,429.700897 249.107040,433.004211 
	C247.028778,434.326599 244.950516,435.648987 242.121353,436.979370 
M138.839218,344.229431 
	C138.913437,344.327728 138.987640,344.425995 139.061859,344.524261 
	C139.047821,344.432983 139.033783,344.341705 139.019730,344.250397 
	C138.834274,344.320557 138.648804,344.390717 138.469574,343.456024 
	C138.712967,342.353668 139.139328,341.256439 139.170212,340.148163 
	C139.377411,332.709412 139.640137,325.268036 139.624084,317.828064 
	C139.580399,297.584137 139.436035,277.340302 139.261078,257.097015 
	C139.226120,253.052551 138.878647,249.010788 138.662979,244.723282 
	C133.743378,244.723282 129.484848,244.724518 125.226326,244.722885 
	C121.434113,244.721451 119.646988,246.231812 119.827202,250.398163 
	C120.125656,257.297913 119.882767,264.220734 119.883476,271.133820 
	C119.886444,300.005676 119.987007,328.878143 119.807030,357.748840 
	C119.778664,362.299744 121.631226,363.621521 125.658554,363.490448 
	C133.109055,363.248016 140.565491,362.871826 148.012802,362.985718 
	C151.587769,363.040344 152.643661,361.526703 152.979141,358.382385 
	C154.202316,346.917755 153.129745,345.866882 141.508591,346.907837 
	C140.587311,346.990387 139.510818,345.340179 138.839218,344.229431 
M255.663635,245.431976 
	C253.129044,245.925491 250.594467,246.418991 248.353912,246.855240 
	C245.975067,267.404999 243.619797,287.751099 241.264526,308.097198 
	C239.740448,307.118774 239.321884,306.216156 239.185516,305.272797 
	C236.500961,286.701874 233.885895,268.120728 231.124298,249.561356 
	C230.891891,247.999466 229.750992,245.311935 228.981583,245.293808 
	C223.674042,245.168701 218.353058,245.614166 212.570312,245.899200 
	C214.118698,254.434006 215.544937,262.053223 216.876373,269.688965 
	C219.097626,282.427887 221.232346,295.181946 223.451355,307.921265 
	C225.898392,321.969788 228.728333,335.960999 230.781921,350.065948 
	C232.736557,363.491241 232.388748,363.451935 245.847015,363.126526 
	C248.975006,363.050934 250.284531,362.009857 250.632187,358.888763 
	C251.642960,349.814758 252.938309,340.772888 254.029282,331.707214 
	C254.443573,328.264526 254.556686,324.786560 254.902115,321.334167 
	C255.072937,319.626831 255.459457,317.941040 255.748383,316.245514 
	C259.328278,330.182098 261.582581,343.913757 264.090088,357.599030 
	C264.430511,359.456909 265.876404,362.431732 267.089081,362.577911 
	C271.888489,363.156494 276.798767,362.815613 281.895905,362.815613 
	C283.425232,352.809662 284.733368,343.150116 286.401886,333.553284 
	C290.408051,310.510864 294.634552,287.506836 298.656616,264.467133 
	C299.748596,258.211945 303.453857,251.985947 298.897095,245.483002 
	C295.709503,245.297897 292.095367,244.939728 288.480011,244.926758 
	C285.768250,244.917023 283.409027,245.372269 282.900360,249.044006 
	C280.676758,265.094421 278.221832,281.112823 275.834869,297.140472 
	C275.214050,301.309204 274.535370,305.469269 273.883270,309.633331 
	C273.457794,309.623993 273.032288,309.614655 272.606812,309.605316 
	C270.107239,288.513519 267.607666,267.421722 265.123505,246.460098 
	C261.931427,246.044952 259.230835,245.693741 255.663635,245.431976 
M163.063354,246.177917 
	C161.673828,249.009750 159.321106,251.763016 159.082428,254.688736 
	C158.463486,262.275482 158.696198,269.938477 158.729950,277.570435 
	C158.837112,301.807892 159.037277,326.044922 159.140045,350.282379 
	C159.177261,359.059021 164.432755,364.124420 173.161987,363.792603 
	C180.628433,363.508759 188.101608,363.354675 195.573257,363.268616 
	C203.170990,363.181061 206.324295,360.808014 207.172760,353.326385 
	C207.788040,347.901093 207.782578,342.390839 207.815414,336.917053 
	C207.888687,324.699066 207.791504,312.480133 207.803040,300.261658 
	C207.817474,284.977264 208.004379,269.691498 207.844406,254.409210 
	C207.777878,248.053085 205.038803,245.239655 199.975769,245.193863 
	C189.854202,245.102295 179.732574,244.971130 169.610962,244.972183 
	C167.671310,244.972397 165.731720,245.505035 163.063354,246.177917 
M450.527527,245.208817 
	C446.313507,245.208817 442.099487,245.208817 438.251099,245.208817 
	C438.251099,265.757050 438.122192,285.274261 438.287537,304.789001 
	C438.451447,324.134521 438.911804,343.477539 439.247864,363.155518 
	C451.718475,363.155518 463.518188,363.410492 475.299927,363.061188 
	C482.524078,362.847015 485.334198,359.426025 485.357391,352.192169 
	C485.433594,328.449646 485.456512,304.707001 485.507050,280.964386 
	C485.525421,272.339111 485.699402,263.711517 485.550385,255.089371 
	C485.432068,248.245255 481.904602,245.310455 475.265045,245.392334 
	C467.350800,245.489975 459.431763,245.201248 450.527527,245.208817 
M330.077484,285.111664 
	C330.030487,287.276550 330.886230,290.383179 329.780243,291.443390 
	C324.976898,296.047974 325.538879,302.367798 327.516907,306.464447 
	C330.606476,312.862976 329.593750,319.005402 329.738647,325.251373 
	C330.028748,337.757721 329.824768,350.275543 329.824768,362.896423 
	C341.744873,362.896423 352.858826,363.096893 363.961060,362.823547 
	C370.960968,362.651215 374.932281,358.512939 374.981140,351.982330 
	C375.071747,339.872589 374.752258,327.753479 375.129517,315.654694 
	C375.327179,309.316925 374.351135,303.853973 370.290009,300.984497 
	C371.744232,296.123322 373.772766,292.168304 373.971313,288.123505 
	C374.470734,277.948669 374.014313,267.731140 374.182281,257.534698 
	C374.379028,245.593170 371.336243,244.322250 362.379272,245.533646 
	C361.767456,245.616394 361.094604,245.107513 360.449463,245.105637 
	C350.383392,245.076218 340.317200,245.085022 330.001617,245.085022 
	C330.001617,258.459869 330.001617,271.327942 330.077484,285.111664 
M381.952393,283.490906 
	C381.719238,306.253082 381.402069,329.014862 381.295166,351.777649 
	C381.253723,360.607513 384.722900,363.587006 393.575104,363.340240 
	C402.017883,363.104889 410.468781,362.822388 418.909698,362.958618 
	C426.798553,363.085907 430.572296,360.285797 430.713501,352.415375 
	C431.162567,327.385132 431.378235,302.350250 431.588379,277.316376 
	C431.651093,269.843658 431.636322,262.353638 431.176025,254.901245 
	C430.989166,251.875885 432.190674,248.108978 427.071381,246.643799 
	C417.213654,243.822433 412.983032,246.348602 412.952789,256.425293 
	C412.868408,284.547638 412.917419,312.670380 412.809174,340.792572 
	C412.799927,343.197815 412.014282,345.600098 411.692413,347.420563 
	C408.629791,346.791046 406.601715,345.851349 404.722412,346.088867 
	C399.693176,346.724548 399.445312,346.508911 399.651550,341.190521 
	C400.074463,330.284271 400.536743,319.370514 400.547485,308.459381 
	C400.566132,289.519958 400.108459,270.579498 400.198029,251.641144 
	C400.217102,247.606232 398.157867,246.341553 395.138306,245.960846 
	C391.089050,245.450287 386.968536,245.504562 381.944885,245.273361 
	C381.944885,257.756073 381.944885,270.121857 381.952393,283.490906 
M529.951721,363.087891 
	C537.703796,360.804840 539.553833,358.320984 539.426331,350.316406 
	C539.360413,346.177643 539.180054,342.039001 539.198181,337.900909 
	C539.258545,324.112091 539.474426,310.322906 539.364929,296.535950 
	C539.352356,294.955109 537.755615,292.097260 536.738831,292.025635 
	C530.666199,291.597778 524.548157,291.813812 518.150085,291.813812 
	C517.951538,295.005310 517.649292,297.306000 517.708252,299.597412 
	C517.774170,302.164001 517.259644,306.175720 518.590820,307.006805 
	C522.325500,309.338531 521.517273,312.452301 521.858948,315.654327 
	C522.706604,323.597198 519.934814,331.758301 523.641785,339.574219 
	C524.818848,342.056091 521.598511,347.189026 519.474121,347.037415 
	C516.383667,346.816895 513.313232,346.316193 510.626465,345.983521 
	C510.919678,343.242157 511.395172,340.966980 511.370270,338.697327 
	C511.093689,313.510132 510.717773,288.323975 510.493256,263.136475 
	C510.484985,262.208954 511.655823,260.571442 512.442688,260.462769 
	C515.194275,260.082672 518.038940,260.021790 520.803040,260.295837 
	C521.674194,260.382202 523.011780,261.851227 523.088257,262.774292 
	C523.365479,266.117004 523.197449,269.496643 523.197449,273.194336 
	C528.242798,273.194336 532.967590,273.194336 538.565674,273.194336 
	C538.565674,267.106598 538.277283,261.344238 538.635681,255.622421 
	C539.128967,247.747726 536.601746,244.383438 528.771423,244.219910 
	C520.157410,244.040009 511.534821,244.151917 502.918060,244.278931 
	C498.027222,244.351028 493.550476,247.594223 493.162048,251.911697 
	C492.583923,258.337463 492.433167,264.826019 492.524292,271.281891 
	C492.659698,280.870880 493.459930,290.454895 493.449554,300.040497 
	C493.430603,317.563599 492.858185,335.086334 492.864929,352.609100 
	C492.867584,359.485016 497.137726,363.042694 504.124023,363.072876 
	C512.434998,363.108826 520.746094,363.123657 529.951721,363.087891 
M496.587341,498.938049 
	C518.850830,510.452454 548.257080,507.326202 562.364014,492.003326 
	C558.841431,488.552887 555.322571,485.106079 551.791077,481.646881 
	C530.261169,496.972839 505.143982,490.782227 492.047699,475.190399 
	C478.745361,459.353333 478.350403,435.971130 491.591095,420.047394 
	C498.543213,411.686554 507.251831,406.155151 518.107727,404.508820 
	C530.525269,402.625641 541.833557,405.517303 551.784607,413.282684 
	C555.468323,409.487244 558.927063,405.923676 562.629028,402.109497 
	C545.429565,388.641846 525.948547,384.217651 505.270905,391.710724 
	C482.208191,400.068085 468.682953,417.340210 466.518158,442.078217 
	C464.349609,466.859253 475.123352,485.476166 496.587341,498.938049 
M610.049377,488.983032 
	C599.375000,492.471161 592.833130,489.943726 584.035889,478.785919 
	C579.259155,479.882324 574.375916,481.003174 569.193665,482.192627 
	C574.509766,495.726746 583.960327,503.580933 597.376160,505.761047 
	C611.016602,507.977600 622.792908,503.418518 631.527222,492.565765 
	C642.784607,478.578003 640.666687,460.615143 626.187256,450.028656 
	C620.803284,446.092255 614.226074,443.736298 608.074341,440.918610 
	C603.563721,438.852600 598.638306,437.620972 594.291260,435.285217 
	C586.852966,431.288483 584.225647,424.935669 586.105835,417.338257 
	C587.954834,409.866760 595.110168,404.208527 602.849365,404.026672 
	C611.226685,403.829865 616.412048,408.505768 620.273743,415.646606 
	C625.237671,414.581696 630.149719,413.527954 635.091919,412.467712 
	C630.353210,395.471985 614.094055,385.770142 596.458862,388.906677 
	C583.711914,391.173798 573.371521,401.413269 570.366821,414.744080 
	C567.585449,427.084595 572.447205,439.394165 583.880249,446.605072 
	C588.996277,449.831818 595.014893,451.627777 600.624817,454.070984 
	C605.775330,456.314087 611.331360,457.927795 615.989929,460.932983 
	C624.392639,466.353424 625.166687,476.519104 618.131104,483.650604 
	C616.079651,485.730103 613.272827,487.064331 610.049377,488.983032 
M586.171570,354.280334 
	C586.371033,347.208649 586.207336,347.015137 578.996033,346.906311 
	C575.170227,346.848572 571.316650,347.143768 567.531433,346.747131 
	C566.330811,346.621307 564.371582,344.790375 564.353943,343.713684 
	C564.192688,333.853210 564.550171,323.983978 564.373901,314.124176 
	C564.317200,310.949432 565.261597,310.037567 568.250183,310.117889 
	C573.823914,310.267639 579.404541,310.160889 585.011841,310.160889 
	C585.011841,304.026031 585.011841,298.682648 585.011841,292.973633 
	C578.769958,292.973633 573.119873,292.880981 567.474854,293.010559 
	C564.399292,293.081146 562.796448,291.936707 563.062012,288.769623 
	C563.346680,285.374207 563.920776,281.992828 564.023987,278.594849 
	C564.188538,273.177124 564.067932,267.750763 564.067932,261.994202 
	C572.336365,261.994202 579.576538,261.994202 587.118958,261.994202 
	C587.118958,257.997681 586.813049,254.331375 587.202515,250.740494 
	C587.616272,246.925186 586.112976,245.857010 582.568359,245.811676 
	C571.575989,245.671082 560.587036,245.277985 549.595459,245.043701 
	C546.206848,244.971451 545.042786,246.997040 545.100708,250.128510 
	C545.335205,262.793121 546.499695,275.465668 544.957214,288.116791 
	C544.717346,290.084717 543.606140,291.983795 543.559082,293.930695 
	C543.430054,299.271515 543.440857,304.636383 543.830933,309.959869 
	C544.012207,312.434113 545.803528,314.827271 545.832947,317.269653 
	C545.995239,330.714325 545.904297,344.163574 545.747498,357.609497 
	C545.705444,361.215759 545.950684,363.499542 550.720825,363.352722 
	C560.758057,363.043793 570.824951,363.189362 580.861145,363.600739 
	C584.912842,363.766815 586.399109,362.440826 586.137512,358.600952 
	C586.058777,357.445740 586.157288,356.278473 586.171570,354.280334 
M606.440552,304.484161 
	C606.566956,308.783417 606.867432,313.085907 606.787598,317.381317 
	C606.531128,331.169556 606.197571,344.957184 605.751282,358.740479 
	C605.622681,362.713837 607.497253,364.242188 611.145386,364.004791 
	C615.373474,363.729706 619.590820,363.290588 624.859802,362.831421 
	C624.859802,354.459167 624.924316,346.550171 624.845642,338.642609 
	C624.702637,324.265472 624.327271,309.889099 624.339966,295.512665 
	C624.346924,287.571869 625.343201,279.620972 625.131348,271.695007 
	C624.998230,266.715973 625.018372,263.147491 631.473389,263.904907 
	C633.217896,264.109558 635.063049,263.456177 637.139771,263.156525 
	C637.139771,259.322510 637.129150,255.525055 637.142090,251.727692 
	C637.164429,245.183273 636.883728,244.824387 630.192871,245.042053 
	C622.769409,245.283585 615.351868,245.948944 607.931458,245.952362 
	C603.069214,245.954605 598.206543,245.109512 593.425415,244.651718 
	C592.945374,246.161591 592.477539,246.948151 592.486023,247.729538 
	C592.516724,250.547882 593.069641,253.403793 592.768799,256.174225 
	C591.944458,263.767059 594.752075,265.049225 602.015747,263.513214 
	C604.706665,262.944153 606.523987,263.262970 606.436707,267.178497 
	C606.167114,279.281403 606.435608,291.396332 606.440552,304.484161 
M475.846130,493.682922 
	C476.178802,491.131500 475.633942,489.695618 472.482910,489.828522 
	C466.661987,490.074005 460.823303,489.898163 454.992004,489.898071 
	C445.211517,489.897949 435.431061,489.898010 425.125763,489.898010 
	C425.125763,456.018555 425.125763,422.649231 425.125763,389.210510 
	C419.829498,389.210510 415.069244,389.210510 410.105408,389.210510 
	C410.105408,427.813202 410.105408,466.205688 410.105408,504.778870 
	C432.016235,504.778870 453.735107,504.778870 475.846222,504.778870 
	C475.846222,501.228699 475.846222,497.931854 475.846130,493.682922 
z"/>
<path fill="#030303" opacity="1.000000" stroke="none" 
	d="
M256.096924,245.387253 
	C259.230835,245.693741 261.931427,246.044952 265.123505,246.460098 
	C267.607666,267.421722 270.107239,288.513519 272.606812,309.605316 
	C273.032288,309.614655 273.457794,309.623993 273.883270,309.633331 
	C274.535370,305.469269 275.214050,301.309204 275.834869,297.140472 
	C278.221832,281.112823 280.676758,265.094421 282.900360,249.044006 
	C283.409027,245.372269 285.768250,244.917023 288.480011,244.926758 
	C292.095367,244.939728 295.709503,245.297897 298.897095,245.483002 
	C303.453857,251.985947 299.748596,258.211945 298.656616,264.467133 
	C294.634552,287.506836 290.408051,310.510864 286.401886,333.553284 
	C284.733368,343.150116 283.425232,352.809662 281.895905,362.815613 
	C276.798767,362.815613 271.888489,363.156494 267.089081,362.577911 
	C265.876404,362.431732 264.430511,359.456909 264.090088,357.599030 
	C261.582581,343.913757 259.328278,330.182098 255.748383,316.245514 
	C255.459457,317.941040 255.072937,319.626831 254.902115,321.334167 
	C254.556686,324.786560 254.443573,328.264526 254.029282,331.707214 
	C252.938309,340.772888 251.642960,349.814758 250.632187,358.888763 
	C250.284531,362.009857 248.975006,363.050934 245.847015,363.126526 
	C232.388748,363.451935 232.736557,363.491241 230.781921,350.065948 
	C228.728333,335.960999 225.898392,321.969788 223.451355,307.921265 
	C221.232346,295.181946 219.097626,282.427887 216.876373,269.688965 
	C215.544937,262.053223 214.118698,254.434006 212.570312,245.899200 
	C218.353058,245.614166 223.674042,245.168701 228.981583,245.293808 
	C229.750992,245.311935 230.891891,247.999466 231.124298,249.561356 
	C233.885895,268.120728 236.500961,286.701874 239.185516,305.272797 
	C239.321884,306.216156 239.740448,307.118774 241.264526,308.097198 
	C243.619797,287.751099 245.975067,267.404999 248.353912,246.855240 
	C250.594467,246.418991 253.129044,245.925491 256.096924,245.387253 
z"/>
<path fill="#020203" opacity="1.000000" stroke="none" 
	d="
M163.427734,245.984985 
	C165.731720,245.505035 167.671310,244.972397 169.610962,244.972183 
	C179.732574,244.971130 189.854202,245.102295 199.975769,245.193863 
	C205.038803,245.239655 207.777878,248.053085 207.844406,254.409210 
	C208.004379,269.691498 207.817474,284.977264 207.803040,300.261658 
	C207.791504,312.480133 207.888687,324.699066 207.815414,336.917053 
	C207.782578,342.390839 207.788040,347.901093 207.172760,353.326385 
	C206.324295,360.808014 203.170990,363.181061 195.573257,363.268616 
	C188.101608,363.354675 180.628433,363.508759 173.161987,363.792603 
	C164.432755,364.124420 159.177261,359.059021 159.140045,350.282379 
	C159.037277,326.044922 158.837112,301.807892 158.729950,277.570435 
	C158.696198,269.938477 158.463486,262.275482 159.082428,254.688736 
	C159.321106,251.763016 161.673828,249.009750 163.427734,245.984985 
M187.387970,261.574860 
	C184.001816,261.900635 180.615677,262.226440 177.041138,262.570343 
	C177.041138,290.592743 177.041138,318.121826 177.041138,345.424255 
	C181.749527,345.424255 186.288605,345.424255 190.610580,345.424255 
	C189.953369,342.960083 189.053711,341.137238 189.043701,339.309570 
	C188.943466,320.996124 189.062775,302.681488 188.959015,284.368134 
	C188.916275,276.827332 188.482407,269.288757 187.387970,261.574860 
z"/>
<path fill="#040404" opacity="1.000000" stroke="none" 
	d="
M451.021179,245.144348 
	C459.431763,245.201248 467.350800,245.489975 475.265045,245.392334 
	C481.904602,245.310455 485.432068,248.245255 485.550385,255.089371 
	C485.699402,263.711517 485.525421,272.339111 485.507050,280.964386 
	C485.456512,304.707001 485.433594,328.449646 485.357391,352.192169 
	C485.334198,359.426025 482.524078,362.847015 475.299927,363.061188 
	C463.518188,363.410492 451.718475,363.155518 439.247864,363.155518 
	C438.911804,343.477539 438.451447,324.134521 438.287537,304.789001 
	C438.122192,285.274261 438.251099,265.757050 438.251099,245.208817 
	C442.099487,245.208817 446.313507,245.208817 451.021179,245.144348 
M467.849182,299.492401 
	C467.911804,288.393066 468.040222,277.293243 467.954224,266.195068 
	C467.943359,264.797485 467.136017,263.072235 466.127106,262.077484 
	C462.826263,258.823029 459.486176,261.365112 456.212677,262.083832 
	C456.796875,267.607452 457.811432,272.800781 457.813202,277.994415 
	C457.820038,298.156891 457.529419,318.319733 457.298523,338.481873 
	C457.193359,347.663666 457.370209,347.862488 466.162109,345.997772 
	C466.428741,345.941223 466.638702,345.617310 467.875183,344.575043 
	C467.875183,330.437225 467.875183,315.466827 467.849182,299.492401 
z"/>
<path fill="#030303" opacity="1.000000" stroke="none" 
	d="
M330.039551,284.653809 
	C330.001617,271.327942 330.001617,258.459869 330.001617,245.085022 
	C340.317200,245.085022 350.383392,245.076218 360.449463,245.105637 
	C361.094604,245.107513 361.767456,245.616394 362.379272,245.533646 
	C371.336243,244.322250 374.379028,245.593170 374.182281,257.534698 
	C374.014313,267.731140 374.470734,277.948669 373.971313,288.123505 
	C373.772766,292.168304 371.744232,296.123322 370.290009,300.984497 
	C374.351135,303.853973 375.327179,309.316925 375.129517,315.654694 
	C374.752258,327.753479 375.071747,339.872589 374.981140,351.982330 
	C374.932281,358.512939 370.960968,362.651215 363.961060,362.823547 
	C352.858826,363.096893 341.744873,362.896423 329.824768,362.896423 
	C329.824768,350.275543 330.028748,337.757721 329.738647,325.251373 
	C329.593750,319.005402 330.606476,312.862976 327.516907,306.464447 
	C325.538879,302.367798 324.976898,296.047974 329.780243,291.443390 
	C330.886230,290.383179 330.030487,287.276550 330.039551,284.653809 
M356.141693,327.570282 
	C356.141693,321.649872 356.141693,315.729462 356.141693,309.846222 
	C347.255371,309.392181 347.262909,309.392334 347.085846,317.845612 
	C346.902344,326.608276 346.577911,335.370270 346.555756,344.133179 
	C346.542358,349.428406 350.887604,347.303955 353.489594,347.493866 
	C354.582275,347.573639 356.796906,345.870514 356.807648,344.957947 
	C356.872498,339.450684 356.446472,333.937683 356.141693,327.570282 
M347.173492,288.196075 
	C346.824341,293.791016 351.063049,293.077850 354.295959,293.003510 
	C358.227661,292.913055 356.416199,289.803864 356.459503,287.769226 
	C356.585907,281.827759 356.285797,275.846008 356.876984,269.952728 
	C357.816071,260.591888 357.312805,259.900848 347.215179,261.566528 
	C347.215179,270.067230 347.215179,278.686981 347.173492,288.196075 
z"/>
<path fill="#030304" opacity="1.000000" stroke="none" 
	d="
M381.948639,282.989258 
	C381.944885,270.121857 381.944885,257.756073 381.944885,245.273361 
	C386.968536,245.504562 391.089050,245.450287 395.138306,245.960846 
	C398.157867,246.341553 400.217102,247.606232 400.198029,251.641144 
	C400.108459,270.579498 400.566132,289.519958 400.547485,308.459381 
	C400.536743,319.370514 400.074463,330.284271 399.651550,341.190521 
	C399.445312,346.508911 399.693176,346.724548 404.722412,346.088867 
	C406.601715,345.851349 408.629791,346.791046 411.692413,347.420563 
	C412.014282,345.600098 412.799927,343.197815 412.809174,340.792572 
	C412.917419,312.670380 412.868408,284.547638 412.952789,256.425293 
	C412.983032,246.348602 417.213654,243.822433 427.071381,246.643799 
	C432.190674,248.108978 430.989166,251.875885 431.176025,254.901245 
	C431.636322,262.353638 431.651093,269.843658 431.588379,277.316376 
	C431.378235,302.350250 431.162567,327.385132 430.713501,352.415375 
	C430.572296,360.285797 426.798553,363.085907 418.909698,362.958618 
	C410.468781,362.822388 402.017883,363.104889 393.575104,363.340240 
	C384.722900,363.587006 381.253723,360.607513 381.295166,351.777649 
	C381.402069,329.014862 381.719238,306.253082 381.948639,282.989258 
z"/>
<path fill="#040404" opacity="1.000000" stroke="none" 
	d="
M529.504395,363.117798 
	C520.746094,363.123657 512.434998,363.108826 504.124023,363.072876 
	C497.137726,363.042694 492.867584,359.485016 492.864929,352.609100 
	C492.858185,335.086334 493.430603,317.563599 493.449554,300.040497 
	C493.459930,290.454895 492.659698,280.870880 492.524292,271.281891 
	C492.433167,264.826019 492.583923,258.337463 493.162048,251.911697 
	C493.550476,247.594223 498.027222,244.351028 502.918060,244.278931 
	C511.534821,244.151917 520.157410,244.040009 528.771423,244.219910 
	C536.601746,244.383438 539.128967,247.747726 538.635681,255.622421 
	C538.277283,261.344238 538.565674,267.106598 538.565674,273.194336 
	C532.967590,273.194336 528.242798,273.194336 523.197449,273.194336 
	C523.197449,269.496643 523.365479,266.117004 523.088257,262.774292 
	C523.011780,261.851227 521.674194,260.382202 520.803040,260.295837 
	C518.038940,260.021790 515.194275,260.082672 512.442688,260.462769 
	C511.655823,260.571442 510.484985,262.208954 510.493256,263.136475 
	C510.717773,288.323975 511.093689,313.510132 511.370270,338.697327 
	C511.395172,340.966980 510.919678,343.242157 510.626465,345.983521 
	C513.313232,346.316193 516.383667,346.816895 519.474121,347.037415 
	C521.598511,347.189026 524.818848,342.056091 523.641785,339.574219 
	C519.934814,331.758301 522.706604,323.597198 521.858948,315.654327 
	C521.517273,312.452301 522.325500,309.338531 518.590820,307.006805 
	C517.259644,306.175720 517.774170,302.164001 517.708252,299.597412 
	C517.649292,297.306000 517.951538,295.005310 518.150085,291.813812 
	C524.548157,291.813812 530.666199,291.597778 536.738831,292.025635 
	C537.755615,292.097260 539.352356,294.955109 539.364929,296.535950 
	C539.474426,310.322906 539.258545,324.112091 539.198181,337.900909 
	C539.180054,342.039001 539.360413,346.177643 539.426331,350.316406 
	C539.553833,358.320984 537.703796,360.804840 529.504395,363.117798 
z"/>
<path fill="#DB9813" opacity="1.000000" stroke="none" 
	d="
M247.980438,411.980652 
	C247.997650,410.927612 248.014847,409.874542 248.377701,408.599670 
	C253.492020,410.920990 258.005157,414.290802 263.075500,415.858032 
	C280.910522,421.370941 299.395508,421.630066 317.834259,420.918121 
	C335.543549,420.234283 353.356964,419.435028 368.837830,408.981567 
	C368.431091,412.088013 368.024353,415.194458 367.107788,418.886780 
	C367.198029,428.886108 361.501587,433.074890 353.454376,435.314209 
	C352.655945,435.536407 351.862091,435.775421 351.062347,435.992706 
	C335.566071,440.202667 319.764679,441.487915 303.765472,441.021332 
	C298.987823,440.882019 294.202606,440.999817 289.420868,440.999817 
	C296.621857,442.743164 303.849335,443.972748 311.056519,443.863251 
	C322.966309,443.682312 334.945465,443.280762 346.741119,441.768677 
	C357.690979,440.364960 368.858276,438.577637 377.836426,431.014648 
	C378.313690,440.100250 377.477570,442.112671 369.009430,444.921356 
	C364.892242,446.286926 363.966370,449.355652 361.780426,452.746399 
	C354.583344,455.841583 347.983978,458.991119 341.043823,460.905304 
	C334.074890,462.827423 326.766510,463.518707 319.199890,464.703247 
	C300.011261,460.395599 281.073944,458.528656 261.607361,460.725647 
	C257.751129,459.244995 254.076202,458.162231 250.553314,456.710480 
	C243.092575,453.636078 241.698395,451.185333 242.579071,443.032898 
	C245.540894,444.764069 248.009140,446.808716 250.834015,448.025116 
	C264.305725,453.826111 278.821320,455.057098 293.115112,455.713867 
	C306.453461,456.326721 319.905060,454.698822 333.293030,453.841736 
	C336.459106,453.639038 339.569916,452.573303 342.706177,451.904572 
	C337.763092,451.538818 333.063934,452.692230 328.324097,452.895142 
	C308.668640,453.736664 289.192596,452.018494 270.242401,446.667542 
	C265.564331,445.346619 259.944000,442.623688 257.689423,438.811066 
	C255.497910,435.105072 253.542175,433.415131 249.781189,432.885986 
	C246.137543,429.700897 243.919601,425.951569 245.380585,420.625122 
	C248.440109,421.947113 251.009186,423.873596 253.884949,425.050873 
	C267.269165,430.529907 281.566101,432.380829 295.719635,432.693512 
	C310.557983,433.021301 325.476135,431.219025 340.303802,429.776184 
	C345.786224,429.242737 351.110352,427.083069 356.506683,425.665070 
	C356.394806,425.226227 356.282928,424.787415 356.171051,424.348572 
	C339.578094,428.886597 322.669098,430.455780 305.562317,429.971985 
	C299.767548,429.808136 293.883484,429.887604 288.212463,428.883301 
	C277.172363,426.928223 266.164856,424.623383 255.329239,421.761505 
	C251.039749,420.628601 247.122589,417.714447 247.980438,411.980652 
z"/>
<path fill="#030304" opacity="1.000000" stroke="none" 
	d="
M496.271271,498.751221 
	C475.123352,485.476166 464.349609,466.859253 466.518158,442.078217 
	C468.682953,417.340210 482.208191,400.068085 505.270905,391.710724 
	C525.948547,384.217651 545.429565,388.641846 562.629028,402.109497 
	C558.927063,405.923676 555.468323,409.487244 551.784607,413.282684 
	C541.833557,405.517303 530.525269,402.625641 518.107727,404.508820 
	C507.251831,406.155151 498.543213,411.686554 491.591095,420.047394 
	C478.350403,435.971130 478.745361,459.353333 492.047699,475.190399 
	C505.143982,490.782227 530.261169,496.972839 551.791077,481.646881 
	C555.322571,485.106079 558.841431,488.552887 562.364014,492.003326 
	C548.257080,507.326202 518.850830,510.452454 496.271271,498.751221 
z"/>
<path fill="#030304" opacity="1.000000" stroke="none" 
	d="
M610.430786,488.861572 
	C613.272827,487.064331 616.079651,485.730103 618.131104,483.650604 
	C625.166687,476.519104 624.392639,466.353424 615.989929,460.932983 
	C611.331360,457.927795 605.775330,456.314087 600.624817,454.070984 
	C595.014893,451.627777 588.996277,449.831818 583.880249,446.605072 
	C572.447205,439.394165 567.585449,427.084595 570.366821,414.744080 
	C573.371521,401.413269 583.711914,391.173798 596.458862,388.906677 
	C614.094055,385.770142 630.353210,395.471985 635.091919,412.467712 
	C630.149719,413.527954 625.237671,414.581696 620.273743,415.646606 
	C616.412048,408.505768 611.226685,403.829865 602.849365,404.026672 
	C595.110168,404.208527 587.954834,409.866760 586.105835,417.338257 
	C584.225647,424.935669 586.852966,431.288483 594.291260,435.285217 
	C598.638306,437.620972 603.563721,438.852600 608.074341,440.918610 
	C614.226074,443.736298 620.803284,446.092255 626.187256,450.028656 
	C640.666687,460.615143 642.784607,478.578003 631.527222,492.565765 
	C622.792908,503.418518 611.016602,507.977600 597.376160,505.761047 
	C583.960327,503.580933 574.509766,495.726746 569.193665,482.192627 
	C574.375916,481.003174 579.259155,479.882324 584.035889,478.785919 
	C592.833130,489.943726 599.375000,492.471161 610.430786,488.861572 
z"/>
<path fill="#030304" opacity="1.000000" stroke="none" 
	d="
M586.173096,354.698547 
	C586.157288,356.278473 586.058777,357.445740 586.137512,358.600952 
	C586.399109,362.440826 584.912842,363.766815 580.861145,363.600739 
	C570.824951,363.189362 560.758057,363.043793 550.720825,363.352722 
	C545.950684,363.499542 545.705444,361.215759 545.747498,357.609497 
	C545.904297,344.163574 545.995239,330.714325 545.832947,317.269653 
	C545.803528,314.827271 544.012207,312.434113 543.830933,309.959869 
	C543.440857,304.636383 543.430054,299.271515 543.559082,293.930695 
	C543.606140,291.983795 544.717346,290.084717 544.957214,288.116791 
	C546.499695,275.465668 545.335205,262.793121 545.100708,250.128510 
	C545.042786,246.997040 546.206848,244.971451 549.595459,245.043701 
	C560.587036,245.277985 571.575989,245.671082 582.568359,245.811676 
	C586.112976,245.857010 587.616272,246.925186 587.202515,250.740494 
	C586.813049,254.331375 587.118958,257.997681 587.118958,261.994202 
	C579.576538,261.994202 572.336365,261.994202 564.067932,261.994202 
	C564.067932,267.750763 564.188538,273.177124 564.023987,278.594849 
	C563.920776,281.992828 563.346680,285.374207 563.062012,288.769623 
	C562.796448,291.936707 564.399292,293.081146 567.474854,293.010559 
	C573.119873,292.880981 578.769958,292.973633 585.011841,292.973633 
	C585.011841,298.682648 585.011841,304.026031 585.011841,310.160889 
	C579.404541,310.160889 573.823914,310.267639 568.250183,310.117889 
	C565.261597,310.037567 564.317200,310.949432 564.373901,314.124176 
	C564.550171,323.983978 564.192688,333.853210 564.353943,343.713684 
	C564.371582,344.790375 566.330811,346.621307 567.531433,346.747131 
	C571.316650,347.143768 575.170227,346.848572 578.996033,346.906311 
	C586.207336,347.015137 586.371033,347.208649 586.173096,354.698547 
z"/>
<path fill="#DB9713" opacity="1.000000" stroke="none" 
	d="
M110.489586,457.505707 
	C110.355225,454.964905 110.220856,452.424133 110.427574,449.633026 
	C112.538826,450.602661 114.210373,452.007538 116.095078,453.012695 
	C128.924988,459.855164 143.167587,460.902374 157.157837,461.785309 
	C176.070496,462.978882 195.035263,462.109375 213.630417,457.799438 
	C217.427719,456.919312 221.015945,455.137177 224.700546,453.770813 
	C224.537735,453.297546 224.374939,452.824280 224.212128,452.351013 
	C223.452194,452.534454 222.677505,452.671570 221.934494,452.908173 
	C207.872482,457.386414 193.305161,458.485596 178.713089,458.894501 
	C170.269394,459.131134 161.688644,459.050751 153.363693,457.810303 
	C142.603012,456.206970 131.952942,453.614288 121.427551,450.802612 
	C117.324890,449.706665 113.462540,447.039612 113.855721,441.582611 
	C113.914658,440.320648 113.973595,439.058685 114.378502,437.589966 
	C118.250679,439.462891 121.549927,442.634064 125.344505,443.423096 
	C138.086090,446.072510 150.945221,449.019745 163.870972,449.685394 
	C177.684265,450.396698 191.690063,449.260498 205.487366,447.774719 
	C215.944397,446.648621 226.595306,444.749817 234.846848,437.007141 
	C234.911911,437.446075 234.976990,437.885010 235.025757,439.065552 
	C234.034790,443.443359 233.060135,447.079590 232.062683,451.147644 
	C231.862503,457.766724 228.956696,461.331635 221.832413,463.895203 
	C207.618576,469.009827 192.727661,470.143555 177.842529,470.908447 
	C168.684250,471.379028 159.482117,470.995544 150.299667,470.995544 
	C152.465408,471.134308 154.720078,471.984253 156.946548,471.915894 
	C174.841217,471.366089 192.787323,471.284851 210.598145,469.708984 
	C219.840637,468.891205 229.385620,466.772400 236.881622,460.438232 
	C237.039520,462.177338 237.136719,463.516449 236.841339,464.934631 
	C232.099640,466.615173 227.624237,467.947113 223.442368,469.905762 
	C220.245575,471.403046 217.516800,473.757019 218.002869,477.996582 
	C217.998108,478.001251 217.988770,478.008606 217.626221,478.005737 
	C216.540497,478.001007 215.817291,477.999084 214.673645,478.060120 
	C193.981552,481.639130 173.558395,482.235992 153.182526,479.909546 
	C143.529221,478.807373 133.962860,476.280243 124.615631,473.522491 
	C121.370338,472.565033 117.075256,469.332001 116.508308,466.490173 
	C115.646317,462.169495 113.344322,459.918060 110.489586,457.505707 
M143.100159,469.778534 
	C143.408615,469.644623 143.717087,469.510681 144.025543,469.376770 
	C143.646103,469.403442 143.266647,469.430084 143.100159,469.778534 
M229.486328,450.553772 
	C229.486328,450.553772 229.448929,450.481049 229.486328,450.553772 
z"/>
<path fill="#F3A713" opacity="1.000000" stroke="none" 
	d="
M218.007645,477.991882 
	C217.516800,473.757019 220.245575,471.403046 223.442368,469.905762 
	C227.624237,467.947113 232.099640,466.615173 237.209076,464.854614 
	C242.641251,463.769775 247.313171,462.843933 252.413162,461.957520 
	C255.846664,461.650085 258.852081,461.303192 261.857513,460.956299 
	C281.073944,458.528656 300.011261,460.395599 319.552307,464.703369 
	C324.817383,466.228882 329.323029,467.708099 333.828644,469.187317 
	C336.480774,471.424347 340.358032,472.735565 339.599792,477.835388 
	C335.459778,480.651184 331.900360,483.527161 327.835144,485.072449 
	C314.352936,490.197449 300.038361,491.374176 285.843689,491.790955 
	C274.304474,492.129761 262.631683,491.255493 251.164413,489.781281 
	C239.406479,488.269745 227.313614,486.795990 218.007645,477.991882 
z"/>
<path fill="#F3A713" opacity="1.000000" stroke="none" 
	d="
M368.903748,408.576385 
	C353.356964,419.435028 335.543549,420.234283 317.834259,420.918121 
	C299.395508,421.630066 280.910522,421.370941 263.075500,415.858032 
	C258.005157,414.290802 253.492020,410.920990 248.443802,408.210266 
	C247.160172,403.560822 249.718811,400.745056 253.307068,399.488159 
	C260.794006,396.865631 268.369904,394.094940 276.145203,392.771698 
	C301.657928,388.429962 327.161652,388.936188 352.402771,395.029327 
	C356.400452,395.994354 360.248871,397.729218 364.022430,399.427826 
	C367.662537,401.066345 369.815216,403.847168 368.903748,408.576385 
z"/>
<path fill="#F3A713" opacity="1.000000" stroke="none" 
	d="
M234.912811,436.614685 
	C226.595306,444.749817 215.944397,446.648621 205.487366,447.774719 
	C191.690063,449.260498 177.684265,450.396698 163.870972,449.685394 
	C150.945221,449.019745 138.086090,446.072510 125.344505,443.423096 
	C121.549927,442.634064 118.250679,439.462891 114.444489,437.216309 
	C112.990463,432.137177 115.716202,429.075256 119.758415,427.842957 
	C128.771713,425.095215 137.854156,422.086334 147.132721,420.793152 
	C170.006821,417.605133 192.937378,418.025696 215.555984,423.198730 
	C220.828430,424.404572 226.056274,426.480164 230.779541,429.101685 
	C232.856781,430.254547 233.619324,433.776123 234.912811,436.614685 
z"/>
<path fill="#030303" opacity="1.000000" stroke="none" 
	d="
M606.467896,303.995361 
	C606.435608,291.396332 606.167114,279.281403 606.436707,267.178497 
	C606.523987,263.262970 604.706665,262.944153 602.015747,263.513214 
	C594.752075,265.049225 591.944458,263.767059 592.768799,256.174225 
	C593.069641,253.403793 592.516724,250.547882 592.486023,247.729538 
	C592.477539,246.948151 592.945374,246.161591 593.425415,244.651718 
	C598.206543,245.109512 603.069214,245.954605 607.931458,245.952362 
	C615.351868,245.948944 622.769409,245.283585 630.192871,245.042053 
	C636.883728,244.824387 637.164429,245.183273 637.142090,251.727692 
	C637.129150,255.525055 637.139771,259.322510 637.139771,263.156525 
	C635.063049,263.456177 633.217896,264.109558 631.473389,263.904907 
	C625.018372,263.147491 624.998230,266.715973 625.131348,271.695007 
	C625.343201,279.620972 624.346924,287.571869 624.339966,295.512665 
	C624.327271,309.889099 624.702637,324.265472 624.845642,338.642609 
	C624.924316,346.550171 624.859802,354.459167 624.859802,362.831421 
	C619.590820,363.290588 615.373474,363.729706 611.145386,364.004791 
	C607.497253,364.242188 605.622681,362.713837 605.751282,358.740479 
	C606.197571,344.957184 606.531128,331.169556 606.787598,317.381317 
	C606.867432,313.085907 606.566956,308.783417 606.467896,303.995361 
z"/>
<path fill="#020203" opacity="1.000000" stroke="none" 
	d="
M138.506454,344.495209 
	C139.510818,345.340179 140.587311,346.990387 141.508591,346.907837 
	C153.129745,345.866882 154.202316,346.917755 152.979141,358.382385 
	C152.643661,361.526703 151.587769,363.040344 148.012802,362.985718 
	C140.565491,362.871826 133.109055,363.248016 125.658554,363.490448 
	C121.631226,363.621521 119.778664,362.299744 119.807030,357.748840 
	C119.987007,328.878143 119.886444,300.005676 119.883476,271.133820 
	C119.882767,264.220734 120.125656,257.297913 119.827202,250.398163 
	C119.646988,246.231812 121.434113,244.721451 125.226326,244.722885 
	C129.484848,244.724518 133.743378,244.723282 138.662979,244.723282 
	C138.878647,249.010788 139.226120,253.052551 139.261078,257.097015 
	C139.436035,277.340302 139.580399,297.584137 139.624084,317.828064 
	C139.640137,325.268036 139.377411,332.709412 139.170212,340.148163 
	C139.139328,341.256439 138.712967,342.353668 138.504883,343.936127 
	C138.540207,344.416229 138.506454,344.495209 138.506454,344.495209 
z"/>
<path fill="#000000" opacity="1.000000" stroke="none" 
	d="
M475.846191,494.158966 
	C475.846222,497.931854 475.846222,501.228699 475.846222,504.778870 
	C453.735107,504.778870 432.016235,504.778870 410.105408,504.778870 
	C410.105408,466.205688 410.105408,427.813202 410.105408,389.210510 
	C415.069244,389.210510 419.829498,389.210510 425.125763,389.210510 
	C425.125763,422.649231 425.125763,456.018555 425.125763,489.898010 
	C435.431061,489.898010 445.211517,489.897949 454.992004,489.898071 
	C460.823303,489.898163 466.661987,490.074005 472.482910,489.828522 
	C475.633942,489.695618 476.178802,491.131500 475.846191,494.158966 
z"/>
<path fill="#DB9814" opacity="1.000000" stroke="none" 
	d="
M218.002869,477.996582 
	C227.313614,486.795990 239.406479,488.269745 251.164413,489.781281 
	C262.631683,491.255493 274.304474,492.129761 285.843689,491.790955 
	C300.038361,491.374176 314.352936,490.197449 327.835144,485.072449 
	C331.900360,483.527161 335.459778,480.651184 339.523651,478.210510 
	C340.274475,487.800201 339.544373,488.599182 331.272980,493.022949 
	C328.859833,494.313568 327.404114,497.394318 324.951447,500.022095 
	C319.969574,502.256134 315.693634,504.688812 311.095978,505.889557 
	C292.751282,510.680634 273.988739,511.819275 255.148605,510.657349 
	C241.552597,509.818848 227.914490,508.618103 215.087708,503.341888 
	C206.923264,499.983521 205.592728,497.770081 206.478516,489.166870 
	C210.989517,491.565826 215.001785,494.727478 219.511139,495.800995 
	C229.284042,498.127563 239.258438,500.273346 249.247177,500.867798 
	C263.372894,501.708466 277.585999,501.080841 291.761749,501.080841 
	C285.982727,500.000000 280.190582,499.830872 274.411438,500.033295 
	C260.026367,500.537201 245.984009,498.386322 232.120285,494.825623 
	C220.774933,491.911804 218.037216,488.560486 217.988770,478.008606 
	C217.988770,478.008606 217.998108,478.001251 218.002869,477.996582 
z"/>
<path fill="#B5B5C5" opacity="1.000000" stroke="none" 
	d="
M206.205139,488.982788 
	C205.592728,497.770081 206.923264,499.983521 215.087708,503.341888 
	C227.914490,508.618103 241.552597,509.818848 255.148605,510.657349 
	C273.988739,511.819275 292.751282,510.680634 311.095978,505.889557 
	C315.693634,504.688812 319.969574,502.256134 324.722351,500.291382 
	C323.513916,507.457275 316.862946,508.889923 311.550476,510.310730 
	C301.510834,512.995850 291.089661,515.416321 280.775116,515.649536 
	C263.714172,516.035339 246.567993,515.129395 229.545746,513.711426 
	C220.906937,512.991821 212.261185,510.651367 204.770813,505.481720 
	C200.884735,502.799713 198.887863,499.532227 198.966217,494.693024 
	C199.099060,486.487335 198.377274,485.817993 190.172409,485.999634 
	C182.207855,486.175964 174.215530,487.239960 166.295029,486.811615 
	C150.579941,485.961792 134.729370,485.143738 119.945877,478.940186 
	C116.568810,477.523071 113.287941,474.958282 110.995384,472.094940 
	C107.730049,468.016602 106.653931,463.101593 110.260277,457.865753 
	C113.344322,459.918060 115.646317,462.169495 116.508308,466.490173 
	C117.075256,469.332001 121.370338,472.565033 124.615631,473.522491 
	C133.962860,476.280243 143.529221,478.807373 153.182526,479.909546 
	C173.558395,482.235992 193.981552,481.639130 214.430252,478.304688 
	C210.605209,481.023468 205.276260,482.498505 206.205139,488.982788 
z"/>
<path fill="#F1A613" opacity="1.000000" stroke="none" 
	d="
M249.444122,432.945099 
	C253.542175,433.415131 255.497910,435.105072 257.689423,438.811066 
	C259.944000,442.623688 265.564331,445.346619 270.242401,446.667542 
	C289.192596,452.018494 308.668640,453.736664 328.324097,452.895142 
	C333.063934,452.692230 337.763092,451.538818 342.706177,451.904572 
	C339.569916,452.573303 336.459106,453.639038 333.293030,453.841736 
	C319.905060,454.698822 306.453461,456.326721 293.115112,455.713867 
	C278.821320,455.057098 264.305725,453.826111 250.834015,448.025116 
	C248.009140,446.808716 245.540894,444.764069 242.504944,442.697510 
	C242.017914,441.843170 241.934250,441.392365 241.904678,440.600067 
	C242.263260,439.162842 242.567749,438.067078 242.872253,436.971344 
	C244.950516,435.648987 247.028778,434.326599 249.444122,432.945099 
z"/>
<path fill="#F1A613" opacity="1.000000" stroke="none" 
	d="
M377.902283,430.615967 
	C368.858276,438.577637 357.690979,440.364960 346.741119,441.768677 
	C334.945465,443.280762 322.966309,443.682312 311.056519,443.863251 
	C303.849335,443.972748 296.621857,442.743164 289.420868,440.999817 
	C294.202606,440.999817 298.987823,440.882019 303.765472,441.021332 
	C319.764679,441.487915 335.566071,440.202667 351.062347,435.992706 
	C351.862091,435.775421 352.655945,435.536407 353.454376,435.314209 
	C361.501587,433.074890 367.198029,428.886108 366.896759,419.190918 
	C369.352417,420.026978 371.532104,421.103302 373.660797,422.272461 
	C376.780182,423.985718 378.552490,426.474182 377.902283,430.615967 
z"/>
<path fill="#F1A613" opacity="1.000000" stroke="none" 
	d="
M113.532104,441.747864 
	C113.462540,447.039612 117.324890,449.706665 121.427551,450.802612 
	C131.952942,453.614288 142.603012,456.206970 153.363693,457.810303 
	C161.688644,459.050751 170.269394,459.131134 178.713089,458.894501 
	C193.305161,458.485596 207.872482,457.386414 221.934494,452.908173 
	C222.677505,452.671570 223.452194,452.534454 224.212128,452.351013 
	C224.374939,452.824280 224.537735,453.297546 224.700546,453.770813 
	C221.015945,455.137177 217.427719,456.919312 213.630417,457.799438 
	C195.035263,462.109375 176.070496,462.978882 157.157837,461.785309 
	C143.167587,460.902374 128.924988,459.855164 116.095078,453.012695 
	C114.210373,452.007538 112.538826,450.602661 110.494774,449.204285 
	C111.216751,446.654938 112.212616,444.283997 113.532104,441.747864 
z"/>
<path fill="#F0A513" opacity="1.000000" stroke="none" 
	d="
M247.677124,412.176270 
	C247.122589,417.714447 251.039749,420.628601 255.329239,421.761505 
	C266.164856,424.623383 277.172363,426.928223 288.212463,428.883301 
	C293.883484,429.887604 299.767548,429.808136 305.562317,429.971985 
	C322.669098,430.455780 339.578094,428.886597 356.171051,424.348572 
	C356.282928,424.787415 356.394806,425.226227 356.506683,425.665070 
	C351.110352,427.083069 345.786224,429.242737 340.303802,429.776184 
	C325.476135,431.219025 310.557983,433.021301 295.719635,432.693512 
	C281.566101,432.380829 267.269165,430.529907 253.884949,425.050873 
	C251.009186,423.873596 248.440109,421.947113 245.446762,420.193909 
	C245.900452,417.471985 246.637115,414.921936 247.677124,412.176270 
z"/>
<path fill="#BFBECB" opacity="1.000000" stroke="none" 
	d="
M334.069885,468.886780 
	C329.323029,467.708099 324.817383,466.228882 319.959290,464.749542 
	C326.766510,463.518707 334.074890,462.827423 341.043823,460.905304 
	C347.983978,458.991119 354.583344,455.841583 361.639252,453.072632 
	C359.813477,455.592804 358.214996,459.357483 355.435760,460.728271 
	C349.758026,463.528748 343.438293,465.021606 337.400269,467.103180 
	C336.327606,467.472992 335.338684,468.085724 334.069885,468.886780 
z"/>
<path fill="#C6C6D7" opacity="1.000000" stroke="none" 
	d="
M242.496796,436.975342 
	C242.567749,438.067078 242.263260,439.162842 241.553436,440.685608 
	C236.943253,445.010315 236.319504,451.245392 240.475372,454.758698 
	C243.889481,457.644897 248.117706,459.568054 251.985077,461.918091 
	C247.313171,462.843933 242.641251,463.769775 237.601624,464.775604 
	C237.136719,463.516449 237.039520,462.177338 236.944305,460.029114 
	C237.638123,455.063751 235.960861,452.261597 232.085480,450.715820 
	C233.060135,447.079590 234.034790,443.443359 235.082336,439.394318 
	C237.477249,438.314148 239.799301,437.646759 242.496796,436.975342 
z"/>
<path fill="#020203" opacity="1.000000" stroke="none" 
	d="
M138.501770,344.438538 
	C138.648804,344.390717 138.834274,344.320557 139.019745,344.250427 
	C139.033783,344.341705 139.047821,344.432983 139.061859,344.524261 
	C138.987640,344.425995 138.913437,344.327728 138.672836,344.362305 
	C138.506454,344.495209 138.540207,344.416229 138.501770,344.438538 
z"/>
<path fill="#D2D4E9" opacity="1.000000" stroke="none" 
	d="
M187.807205,261.662018 
	C188.482407,269.288757 188.916275,276.827332 188.959015,284.368134 
	C189.062775,302.681488 188.943466,320.996124 189.043701,339.309570 
	C189.053711,341.137238 189.953369,342.960083 190.610580,345.424255 
	C186.288605,345.424255 181.749527,345.424255 177.041138,345.424255 
	C177.041138,318.121826 177.041138,290.592743 177.041138,262.570343 
	C180.615677,262.226440 184.001816,261.900635 187.807205,261.662018 
z"/>
<path fill="#D1D3E8" opacity="1.000000" stroke="none" 
	d="
M467.862183,299.994385 
	C467.875183,315.466827 467.875183,330.437225 467.875183,344.575043 
	C466.638702,345.617310 466.428741,345.941223 466.162109,345.997772 
	C457.370209,347.862488 457.193359,347.663666 457.298523,338.481873 
	C457.529419,318.319733 457.820038,298.156891 457.813202,277.994415 
	C457.811432,272.800781 456.796875,267.607452 456.212677,262.083832 
	C459.486176,261.365112 462.826263,258.823029 466.127106,262.077484 
	C467.136017,263.072235 467.943359,264.797485 467.954224,266.195068 
	C468.040222,277.293243 467.911804,288.393066 467.862183,299.994385 
z"/>
<path fill="#D1D3E8" opacity="1.000000" stroke="none" 
	d="
M356.163177,327.998413 
	C356.446472,333.937683 356.872498,339.450684 356.807648,344.957947 
	C356.796906,345.870514 354.582275,347.573639 353.489594,347.493866 
	C350.887604,347.303955 346.542358,349.428406 346.555756,344.133179 
	C346.577911,335.370270 346.902344,326.608276 347.085846,317.845612 
	C347.262909,309.392334 347.255371,309.392181 356.141693,309.846222 
	C356.141693,315.729462 356.141693,321.649872 356.163177,327.998413 
z"/>
<path fill="#CFD1E6" opacity="1.000000" stroke="none" 
	d="
M347.194336,287.751404 
	C347.215179,278.686981 347.215179,270.067230 347.215179,261.566528 
	C357.312805,259.900848 357.816071,260.591888 356.876984,269.952728 
	C356.285797,275.846008 356.585907,281.827759 356.459503,287.769226 
	C356.416199,289.803864 358.227661,292.913055 354.295959,293.003510 
	C351.063049,293.077850 346.824341,293.791016 347.194336,287.751404 
z"/>
<path fill="#ABA9B3" opacity="1.000000" stroke="none" 
	d="
M252.413162,461.957520 
	C248.117706,459.568054 243.889481,457.644897 240.475372,454.758698 
	C236.319504,451.245392 236.943253,445.010315 241.499344,441.027100 
	C241.934250,441.392365 242.017914,441.843170 242.175705,442.629364 
	C241.698395,451.185333 243.092575,453.636078 250.553314,456.710480 
	C254.076202,458.162231 257.751129,459.244995 261.607361,460.725647 
	C258.852081,461.303192 255.846664,461.650085 252.413162,461.957520 
z"/>
<path fill="#F1A613" opacity="1.000000" stroke="none" 
	d="
M206.478516,489.166870 
	C205.276260,482.498505 210.605209,481.023468 214.850708,478.241730 
	C215.817291,477.999084 216.540497,478.001007 217.626221,478.005737 
	C218.037216,488.560486 220.774933,491.911804 232.120285,494.825623 
	C245.984009,498.386322 260.026367,500.537201 274.411438,500.033295 
	C280.190582,499.830872 285.982727,500.000000 291.761749,501.080841 
	C277.585999,501.080841 263.372894,501.708466 249.247177,500.867798 
	C239.258438,500.273346 229.284042,498.127563 219.511139,495.800995 
	C215.001785,494.727478 210.989517,491.565826 206.478516,489.166870 
z"/>
<path fill="#F0A513" opacity="1.000000" stroke="none" 
	d="
M232.062683,451.147644 
	C235.960861,452.261597 237.638123,455.063751 236.883606,459.629150 
	C229.385620,466.772400 219.840637,468.891205 210.598145,469.708984 
	C192.787323,471.284851 174.841217,471.366089 156.946548,471.915894 
	C154.720078,471.984253 152.465408,471.134308 150.299667,470.995544 
	C159.482117,470.995544 168.684250,471.379028 177.842529,470.908447 
	C192.727661,470.143555 207.618576,469.009827 221.832413,463.895203 
	C228.956696,461.331635 231.862503,457.766724 232.062683,451.147644 
z"/>
<path fill="#F0A513" opacity="1.000000" stroke="none" 
	d="
M142.993683,469.617615 
	C143.266647,469.430084 143.646103,469.403442 144.025543,469.376770 
	C143.717087,469.510681 143.408615,469.644623 142.993683,469.617615 
z"/>
<path fill="#F1A613" opacity="1.000000" stroke="none" 
	d="
M229.467621,450.517395 
	C229.448929,450.481049 229.486328,450.553772 229.467621,450.517395 
z"/>
</svg>