<svg version="1.1" id="Layer_1" xmlns="http://www.w3.org/2000/svg" xmlns:xlink="http://www.w3.org/1999/xlink" x="0px" y="0px"
	 width="100%" viewBox="0 0 750 430" enable-background="new 0 0 750 430" xml:space="preserve">
<path fill="#D8DAF0" opacity="1.000000" stroke="none" 
	d="
M572.000000,431.000000 
	C381.333344,431.000000 191.166672,431.000000 1.000000,431.000000 
	C1.000000,287.666656 1.000000,144.333328 1.000000,1.000000 
	C251.000000,1.000000 501.000000,1.000000 751.000000,1.000000 
	C751.000000,144.333328 751.000000,287.666656 751.000000,431.000000 
	C691.500000,431.000000 632.000000,431.000000 572.000000,431.000000 
M242.334900,277.022797 
	C239.939911,277.676758 237.544937,278.330719 235.039871,278.326111 
	C234.975220,277.886780 234.910568,277.447449 234.977707,276.222778 
	C233.618179,273.776825 232.839233,270.461334 230.769348,269.079254 
	C227.259842,266.735962 223.062210,265.121643 218.933060,264.057800 
	C195.419907,257.999725 171.517822,257.553833 147.628021,260.749817 
	C138.184143,262.013214 128.937805,265.079193 119.758781,267.846161 
	C115.714722,269.065155 112.991898,272.139099 114.033836,277.798035 
	C113.974800,279.060059 113.915764,280.322052 113.209579,281.914520 
	C112.213768,284.285217 111.217957,286.655914 110.087997,289.884796 
	C110.227272,292.426849 110.366547,294.968903 110.023010,298.290710 
	C107.620552,305.700165 109.146461,311.528992 115.366325,315.756592 
	C118.592590,317.949402 122.343018,319.681213 126.105331,320.724152 
	C148.358521,326.893005 171.068817,326.941437 193.867783,325.199890 
	C197.456665,324.925751 198.696198,326.326202 199.185196,329.957275 
	C199.784149,334.404755 200.337677,339.724701 203.038406,342.797424 
	C206.217728,346.414673 211.424377,349.335358 216.196899,350.258911 
	C229.341965,352.802826 242.673065,354.777954 256.020111,355.756042 
	C265.906097,356.480530 276.073761,356.212311 285.858612,354.710114 
	C296.919250,353.012054 307.737671,349.599792 318.544464,346.522278 
	C320.304260,346.021118 321.459290,343.396332 323.343811,341.260864 
	C324.715607,339.860138 326.117950,338.487701 327.450378,337.050476 
	C328.692627,335.710480 329.593964,333.775116 331.105194,333.009918 
	C339.714020,328.650635 340.271820,327.872101 339.947632,317.286346 
	C337.907990,314.538696 335.868378,311.791046 334.446869,308.610077 
	C335.761780,308.040771 337.053864,307.409760 338.395569,306.912750 
	C344.300476,304.725342 350.445404,303.024933 356.032745,300.212982 
	C358.587036,298.927399 360.053192,295.479706 362.338684,292.377625 
	C363.546539,287.970062 366.650024,285.853973 370.801788,284.189056 
	C377.719055,281.415039 378.295197,279.781281 377.966766,270.218536 
	C378.576447,266.459595 376.732666,264.004028 373.651642,262.279205 
	C371.533813,261.093567 369.348602,260.028290 367.615662,258.300934 
	C368.022797,255.194733 368.429962,252.088531 368.968628,248.171265 
	C369.743835,243.886215 367.757690,240.942505 364.014038,239.450867 
	C358.788055,237.368591 353.503967,235.164780 348.034302,234.007706 
	C324.690704,229.069412 301.125153,228.604095 277.625000,232.506714 
	C269.357544,233.879669 261.297485,236.772629 253.318359,239.487717 
	C249.722351,240.711334 247.190979,243.573563 248.033096,248.823227 
	C248.015076,249.877029 247.997055,250.930817 247.372513,252.374573 
	C246.636414,254.922775 245.900314,257.470978 245.032654,260.877075 
	C243.908875,265.951233 246.170761,269.685913 249.123352,272.998474 
	C247.116028,274.345947 245.108688,275.693420 242.334900,277.022797 
M225.338379,158.211914 
	C227.185318,168.835419 229.350037,179.415787 230.799011,190.093292 
	C232.622818,203.532883 232.367966,203.475021 245.891617,203.125641 
	C249.053802,203.043945 250.288574,201.932739 250.633636,198.839615 
	C251.443542,191.579971 252.625000,184.362549 253.504456,177.109650 
	C254.123001,172.008591 254.478790,166.875977 254.979828,161.760193 
	C255.156738,159.954010 255.416367,158.155930 255.638229,156.354141 
	C256.096039,156.413391 256.553833,156.472641 257.011627,156.531891 
	C258.924805,167.811218 260.911163,179.078751 262.731842,190.372971 
	C264.814362,203.291321 264.750366,203.300873 278.030121,203.188339 
	C278.360382,203.185532 278.832031,203.404312 278.998688,203.254257 
	C280.032898,202.323074 281.665527,201.445511 281.885345,200.314209 
	C284.403961,187.351761 286.723602,174.350372 289.058411,161.352554 
	C293.037872,139.199478 297.015411,117.045975 300.922546,94.880081 
	C301.418701,92.065323 301.486603,89.175087 301.823975,85.557686 
	C301.116547,86.944160 300.791321,87.581573 300.392212,88.363747 
	C299.374756,87.098755 298.729004,85.504997 297.899506,85.402786 
	C294.468872,84.980057 290.928406,84.599335 287.539978,85.047508 
	C285.890625,85.265656 283.425354,87.139885 283.145599,88.610046 
	C281.416687,97.695610 280.185120,106.876640 278.826111,116.031555 
	C277.155975,127.282005 275.522888,138.537949 273.873810,149.791504 
	C273.466400,149.816299 273.059021,149.841095 272.651611,149.865875 
	C270.130005,128.675827 267.608368,107.485764 265.073883,86.187607 
	C259.032532,86.187607 253.528030,86.187607 248.433563,86.187607 
	C245.970901,107.443764 243.619461,127.740044 241.268005,148.036316 
	C240.820679,148.018570 240.373352,148.000824 239.926025,147.983063 
	C239.667557,147.047577 239.303604,146.127304 239.166199,145.174362 
	C236.487366,126.595558 233.886444,108.005173 231.084457,89.445107 
	C230.847244,87.873817 229.345490,85.275978 228.356552,85.240570 
	C223.335388,85.060806 218.289581,85.569267 212.571762,85.872765 
	C216.845444,110.150757 221.001678,133.761475 225.338379,158.211914 
M161.881042,199.457565 
	C165.625809,200.896912 169.302673,203.300568 173.129837,203.570099 
	C180.555588,204.093063 188.064972,203.338577 195.541260,203.258698 
	C203.164032,203.177231 206.313446,200.833374 207.166855,193.351974 
	C207.785858,187.925476 207.781448,182.413071 207.814377,176.937515 
	C207.887894,164.715271 207.789139,152.492111 207.800644,140.269348 
	C207.815033,124.979904 208.003723,109.689079 207.842667,94.401741 
	C207.775711,88.047226 205.029404,85.241356 199.961655,85.194206 
	C189.503540,85.096909 179.045547,84.978127 168.587234,84.912041 
	C162.632721,84.874413 159.203644,87.938210 158.980652,93.878708 
	C158.694336,101.505943 158.601196,109.145020 158.623810,116.778412 
	C158.691666,139.672440 158.733704,162.568100 159.088531,185.458420 
	C159.157898,189.932739 160.586670,194.386002 161.881042,199.457565 
M485.292450,152.807068 
	C485.326233,142.999359 485.346802,133.191574 485.397614,123.383949 
	C485.445648,114.106628 485.612000,104.829002 485.561707,95.552406 
	C485.526276,89.012207 482.024475,85.097046 476.688446,85.116356 
	C468.783051,85.144974 460.877411,85.105721 452.971893,85.099388 
	C447.948120,85.095367 442.924347,85.098648 438.931458,85.098648 
	C438.931458,125.212395 438.931458,164.057343 438.931458,203.167923 
	C451.761719,203.167923 463.397644,203.405090 475.018005,203.082550 
	C482.470337,202.875687 485.312500,199.468506 485.353882,191.975540 
	C485.424438,179.189911 485.431946,166.403931 485.292450,152.807068 
M371.903748,137.118256 
	C372.646149,134.096603 373.946960,131.089951 374.028595,128.050552 
	C374.298370,118.009422 373.967560,107.953255 374.168884,97.908905 
	C374.394501,86.651344 372.000366,83.993858 362.245514,85.523422 
	C361.793365,85.594315 361.283478,85.186058 360.800110,85.185051 
	C350.579865,85.163750 340.359589,85.168922 330.391541,85.168922 
	C330.081848,85.846489 329.954559,85.993637 329.956726,86.138855 
	C330.170044,100.466766 330.408783,114.794357 330.577637,129.122757 
	C330.587952,129.996613 330.293091,131.098282 329.728363,131.719528 
	C324.779938,137.163147 326.576996,143.109833 328.270599,149.074341 
	C328.837280,151.070068 329.839661,153.069489 329.856354,155.073776 
	C329.988068,170.915222 329.929596,186.758255 329.929596,202.882599 
	C341.888153,202.882599 353.317780,203.127930 364.729919,202.787659 
	C371.240997,202.593506 374.970856,198.113464 374.992645,191.703323 
	C375.032715,179.917328 374.767426,168.121841 375.170807,156.348846 
	C375.398651,149.698425 374.325409,143.924805 368.805603,139.831024 
	C369.951843,138.948624 370.722382,138.355453 371.903748,137.118256 
M431.241028,175.539169 
	C431.300323,153.672455 431.397888,131.805725 431.393311,109.939034 
	C431.392090,104.142548 430.707062,98.324577 431.043488,92.557747 
	C431.246063,89.085251 429.874390,87.745285 427.038666,86.783058 
	C417.327454,83.487816 412.983887,86.352356 412.953857,96.417892 
	C412.870026,124.538803 412.918762,152.660141 412.810944,180.780899 
	C412.801666,183.194733 412.019653,185.605606 411.743286,187.181503 
	C408.467834,186.709991 406.064911,185.614563 404.302246,186.262131 
	C400.296265,187.733780 399.498352,185.981003 399.551880,182.701447 
	C399.713837,172.773819 400.052185,162.847473 400.089752,152.919724 
	C400.168304,132.173096 400.047852,111.425705 400.132904,90.679123 
	C400.149292,86.677147 397.380310,86.386749 394.682373,86.008308 
	C392.396576,85.687706 389.934540,86.198578 387.760590,85.590446 
	C382.468628,84.110123 381.692993,86.510399 381.842041,91.069786 
	C382.145721,100.361107 382.093475,109.668030 382.015472,118.967079 
	C381.812042,143.219101 381.442413,167.469910 381.294861,191.722137 
	C381.241028,200.572403 384.680878,203.544205 393.518219,203.342331 
	C402.454895,203.138184 411.396729,203.061401 420.335754,203.092712 
	C426.233795,203.113373 430.292267,199.890106 430.693604,193.975067 
	C431.087158,188.175140 431.017700,182.343765 431.241028,175.539169 
M500.522797,84.593628 
	C498.039917,87.009651 494.138611,89.051163 493.380463,91.922562 
	C491.965302,97.282402 492.074615,103.124763 492.081848,108.765648 
	C492.107269,128.583603 492.351868,148.401337 492.528168,168.219025 
	C492.601807,176.499634 492.521973,184.787918 492.868744,193.057755 
	C493.134247,199.390030 497.210907,202.997330 503.573669,203.066635 
	C511.719360,203.155365 519.866699,203.217224 528.012268,203.154434 
	C535.457825,203.097061 539.290527,199.198700 539.335571,191.753525 
	C539.363647,187.118301 539.173035,182.481857 539.195374,177.846512 
	C539.261841,164.052750 539.475159,150.258514 539.361389,136.466690 
	C539.348572,134.909363 537.704773,132.098190 536.665955,132.025299 
	C530.597290,131.599411 524.483398,131.816467 517.630249,131.816467 
	C517.630249,136.738205 517.580139,140.702301 517.668396,144.663315 
	C517.688293,145.558350 517.956482,147.016266 518.506775,147.239883 
	C522.421082,148.830734 521.696228,152.156952 521.854187,155.241852 
	C522.328308,164.503326 523.046570,173.758331 523.197937,183.023575 
	C523.219849,184.365097 520.755920,186.750763 519.265442,186.901199 
	C516.307739,187.199707 513.226746,186.276505 510.804352,185.942108 
	C510.998566,182.773941 511.267029,180.160889 511.296753,177.545120 
	C511.360748,171.910660 511.355499,166.274109 511.283691,160.639633 
	C511.040863,141.584335 510.730927,122.529793 510.558655,103.473953 
	C510.549377,102.446121 511.456055,100.601982 512.116699,100.515511 
	C515.030762,100.134109 518.028748,100.061111 520.955811,100.325386 
	C521.773315,100.399200 523.015564,101.963333 523.092529,102.921745 
	C523.358093,106.226898 523.194702,109.566505 523.194702,113.179611 
	C528.352539,113.179611 533.059021,113.179611 538.574524,113.179611 
	C538.574524,107.057365 538.285645,101.280334 538.644897,95.543907 
	C539.133850,87.737762 536.524963,84.306786 528.687073,84.227242 
	C519.582581,84.134827 510.473969,84.437492 500.522797,84.593628 
M541.572571,230.874039 
	C512.998657,222.341522 483.108948,236.057999 471.060303,263.232391 
	C459.088104,290.234497 469.214722,322.181396 494.603424,337.777344 
	C517.347107,351.748535 548.179260,346.781189 561.948364,332.229462 
	C558.592651,328.596039 555.251648,324.978577 551.945984,321.399353 
	C532.230103,335.993439 507.046570,331.781860 493.266968,316.548187 
	C479.315857,301.124908 477.885284,277.924072 490.454865,261.483673 
	C496.707458,253.305588 504.692780,247.479095 514.842896,245.166153 
	C528.399231,242.077011 540.847717,244.796143 551.836426,253.299225 
	C555.667786,249.518890 559.195251,246.038452 563.706299,241.587433 
	C556.231262,237.891342 549.296631,234.462479 541.572571,230.874039 
M580.106445,319.769470 
	C576.568970,320.525482 573.031433,321.281494 569.200562,322.100189 
	C574.291870,335.530182 583.715820,343.403076 597.092957,345.718048 
	C610.510437,348.040039 622.206787,343.664795 631.037354,333.182739 
	C642.865173,319.142914 640.843689,300.698456 626.026489,289.898834 
	C620.763062,286.062561 614.361206,283.738708 608.363770,280.974365 
	C603.261292,278.622498 597.543640,277.303986 592.954895,274.243652 
	C589.834717,272.162750 587.165466,268.161530 586.104919,264.495331 
	C583.887573,256.829620 589.023804,248.419418 596.735229,245.253021 
	C604.614014,242.017899 613.117676,244.837418 618.229736,252.117035 
	C619.166199,253.450531 621.075745,255.113342 622.380493,254.989136 
	C626.599854,254.587494 630.746704,253.424042 634.912659,252.555939 
	C631.523987,236.299622 614.476929,225.878174 596.760071,228.873978 
	C583.779297,231.068954 573.261108,241.430038 570.309448,254.929382 
	C567.614075,267.256805 572.559265,279.528412 584.044067,286.704834 
	C589.172729,289.909546 595.203003,291.666351 600.810852,294.110687 
	C605.960266,296.355225 611.491760,298.024750 616.142517,301.044678 
	C624.175659,306.260895 624.991333,315.849335 618.751282,323.123138 
	C609.944641,333.388824 594.132324,332.807068 586.439026,321.687317 
	C584.809448,319.331970 583.495728,318.370117 580.106445,319.769470 
M542.878967,135.890259 
	C542.988708,140.362259 542.781799,144.872131 543.310303,149.294067 
	C543.719177,152.715134 545.775696,156.012177 545.840515,159.388535 
	C546.088989,172.326187 545.874756,185.274139 545.727722,198.217041 
	C545.690308,201.510910 546.221313,203.412918 550.341553,203.303619 
	C558.746094,203.080643 567.165955,203.502823 575.580139,203.557129 
	C586.365967,203.626709 586.275635,203.583069 586.313049,192.473648 
	C586.326782,188.397552 584.640198,186.735413 580.621704,186.876648 
	C576.300049,187.028564 571.949585,187.119888 567.653198,186.752167 
	C566.423340,186.646896 564.353577,184.870819 564.339050,183.837448 
	C564.203186,174.138214 564.765686,164.421097 564.395935,154.737015 
	C564.236328,150.555618 565.704712,149.991806 569.132080,150.109283 
	C574.399109,150.289841 579.676941,150.156769 585.175598,150.156769 
	C585.175598,144.237213 585.175598,138.993576 585.175598,132.976822 
	C578.989624,132.976822 573.193359,133.245499 567.451782,132.803848 
	C565.847046,132.680420 563.151245,130.501663 563.109314,129.196579 
	C562.953125,124.333633 563.821411,119.448112 564.055664,114.559113 
	C564.250671,110.489716 564.095642,106.403549 564.095642,101.968842 
	C572.371704,101.968842 579.608093,101.968842 587.118958,101.968842 
	C587.118958,97.954300 586.888733,94.297577 587.186218,90.684296 
	C587.463196,87.320564 586.504822,85.881042 582.926941,85.837273 
	C571.766174,85.700745 560.606873,85.131531 549.451660,85.235237 
	C547.977966,85.248940 545.276306,88.189034 545.271057,89.780739 
	C545.229248,102.606728 546.321472,115.441460 544.943909,128.253998 
	C544.697388,130.546616 543.783325,132.767441 542.878967,135.890259 
M606.569397,137.035187 
	C606.652893,143.822067 606.898438,150.611649 606.786011,157.395279 
	C606.557495,171.175339 606.186707,184.953766 605.758057,198.729233 
	C605.647156,202.291977 607.077820,204.167770 610.632935,203.990677 
	C615.026001,203.771820 619.407349,203.316772 624.861023,202.877884 
	C624.861023,194.477051 624.926086,186.576385 624.846863,178.677170 
	C624.702759,164.301880 624.367004,149.927795 624.317139,135.552490 
	C624.285095,126.311539 624.512024,117.064560 624.915039,107.833038 
	C624.972351,106.520485 626.483215,104.462746 627.672058,104.168922 
	C630.547424,103.458275 633.630066,103.586060 636.992554,103.350403 
	C636.992554,97.806244 636.992554,92.230515 636.992554,85.740364 
	C628.188660,84.816002 619.225159,84.511322 610.189819,85.479538 
	C608.484192,85.662308 606.651672,85.646461 605.004272,85.226265 
	C594.655884,82.586815 591.917358,84.791214 592.720642,95.319542 
	C592.745850,95.650520 592.824341,95.977600 592.846558,96.308609 
	C593.408813,104.680595 593.422302,104.647461 602.114624,103.439194 
	C604.506348,103.106735 606.544312,103.109619 606.478943,106.804100 
	C606.306091,116.577087 606.556152,126.357552 606.569397,137.035187 
M119.887146,111.669022 
	C119.892525,140.346634 119.987556,169.024796 119.810196,197.701279 
	C119.782425,202.192078 121.517990,203.624802 125.605881,203.489914 
	C133.212784,203.238983 140.824234,202.933212 148.431595,202.983032 
	C151.520477,203.003265 152.857483,201.607697 152.866013,198.960281 
	C152.879395,194.808823 152.500290,190.656097 152.289078,186.536804 
	C148.665146,186.536804 145.835587,186.224152 143.102356,186.604233 
	C137.981140,187.316391 137.489670,186.811905 139.077209,181.714539 
	C139.409332,180.648178 139.189728,179.408478 139.215408,178.248444 
	C139.365250,171.478485 139.650589,164.708176 139.634598,157.938568 
	C139.586823,137.706558 139.461166,117.474434 139.267395,97.243301 
	C139.227432,93.070587 138.761353,88.901955 138.493805,84.764458 
	C133.184509,84.764458 128.911301,84.721581 124.639397,84.778114 
	C121.261826,84.822807 119.716324,86.364113 119.832062,89.992897 
	C120.052155,96.893127 119.886307,103.805664 119.887146,111.669022 
M472.296143,329.899445 
	C456.704742,329.899445 441.113373,329.899445 425.183350,329.899445 
	C425.183350,295.995392 425.183350,262.740601 425.183350,229.272980 
	C419.948273,229.272980 415.061890,229.272980 410.164734,229.272980 
	C410.164734,267.937775 410.164734,306.330078 410.164734,344.709717 
	C432.146240,344.709717 453.860382,344.709717 475.841980,344.709717 
	C475.841980,340.405304 475.998169,336.418884 475.724152,332.462189 
	C475.661377,331.555939 474.117126,330.752258 472.296143,329.899445 
z"/>
<path fill="#030303" opacity="1.000000" stroke="none" 
	d="
M225.248138,157.792053 
	C221.001678,133.761475 216.845444,110.150757 212.571762,85.872765 
	C218.289581,85.569267 223.335388,85.060806 228.356552,85.240570 
	C229.345490,85.275978 230.847244,87.873817 231.084457,89.445107 
	C233.886444,108.005173 236.487366,126.595558 239.166199,145.174362 
	C239.303604,146.127304 239.667557,147.047577 239.926025,147.983063 
	C240.373352,148.000824 240.820679,148.018570 241.268005,148.036316 
	C243.619461,127.740044 245.970901,107.443764 248.433563,86.187607 
	C253.528030,86.187607 259.032532,86.187607 265.073883,86.187607 
	C267.608368,107.485764 270.130005,128.675827 272.651611,149.865875 
	C273.059021,149.841095 273.466400,149.816299 273.873810,149.791504 
	C275.522888,138.537949 277.155975,127.282005 278.826111,116.031555 
	C280.185120,106.876640 281.416687,97.695610 283.145599,88.610046 
	C283.425354,87.139885 285.890625,85.265656 287.539978,85.047508 
	C290.928406,84.599335 294.468872,84.980057 297.899506,85.402786 
	C298.729004,85.504997 299.374756,87.098755 300.392212,88.363747 
	C300.791321,87.581573 301.116547,86.944160 301.823975,85.557686 
	C301.486603,89.175087 301.418701,92.065323 300.922546,94.880081 
	C297.015411,117.045975 293.037872,139.199478 289.058411,161.352554 
	C286.723602,174.350372 284.403961,187.351761 281.885345,200.314209 
	C281.665527,201.445511 280.032898,202.323074 278.998688,203.254257 
	C278.832031,203.404312 278.360382,203.185532 278.030121,203.188339 
	C264.750366,203.300873 264.814362,203.291321 262.731842,190.372971 
	C260.911163,179.078751 258.924805,167.811218 257.011627,156.531891 
	C256.553833,156.472641 256.096039,156.413391 255.638229,156.354141 
	C255.416367,158.155930 255.156738,159.954010 254.979828,161.760193 
	C254.478790,166.875977 254.123001,172.008591 253.504456,177.109650 
	C252.625000,184.362549 251.443542,191.579971 250.633636,198.839615 
	C250.288574,201.932739 249.053802,203.043945 245.891617,203.125641 
	C232.367966,203.475021 232.622818,203.532883 230.799011,190.093292 
	C229.350037,179.415787 227.185318,168.835419 225.248138,157.792053 
z"/>
<path fill="#020203" opacity="1.000000" stroke="none" 
	d="
M161.634735,199.153259 
	C160.586670,194.386002 159.157898,189.932739 159.088531,185.458420 
	C158.733704,162.568100 158.691666,139.672440 158.623810,116.778412 
	C158.601196,109.145020 158.694336,101.505943 158.980652,93.878708 
	C159.203644,87.938210 162.632721,84.874413 168.587234,84.912041 
	C179.045547,84.978127 189.503540,85.096909 199.961655,85.194206 
	C205.029404,85.241356 207.775711,88.047226 207.842667,94.401741 
	C208.003723,109.689079 207.815033,124.979904 207.800644,140.269348 
	C207.789139,152.492111 207.887894,164.715271 207.814377,176.937515 
	C207.781448,182.413071 207.785858,187.925476 207.166855,193.351974 
	C206.313446,200.833374 203.164032,203.177231 195.541260,203.258698 
	C188.064972,203.338577 180.555588,204.093063 173.129837,203.570099 
	C169.302673,203.300568 165.625809,200.896912 161.634735,199.153259 
M177.149719,138.498734 
	C177.149719,154.234589 177.149719,169.970444 177.149719,185.396408 
	C181.806931,185.396408 186.324615,185.396408 190.553482,185.396408 
	C189.915543,182.906708 189.051941,181.085312 189.042404,179.259445 
	C188.946640,160.960190 188.991898,142.660202 188.996109,124.360420 
	C188.997864,116.819733 188.996399,109.279037 188.996399,101.625671 
	C184.648895,101.927986 181.083038,102.175949 177.121521,102.451424 
	C177.121521,114.361931 177.121521,125.929909 177.149719,138.498734 
z"/>
<path fill="#040404" opacity="1.000000" stroke="none" 
	d="
M485.379211,153.212585 
	C485.431946,166.403931 485.424438,179.189911 485.353882,191.975540 
	C485.312500,199.468506 482.470337,202.875687 475.018005,203.082550 
	C463.397644,203.405090 451.761719,203.167923 438.931458,203.167923 
	C438.931458,164.057343 438.931458,125.212395 438.931458,85.098648 
	C442.924347,85.098648 447.948120,85.095367 452.971893,85.099388 
	C460.877411,85.105721 468.783051,85.144974 476.688446,85.116356 
	C482.024475,85.097046 485.526276,89.012207 485.561707,95.552406 
	C485.612000,104.829002 485.445648,114.106628 485.397614,123.383949 
	C485.346802,133.191574 485.326233,142.999359 485.379211,153.212585 
M456.885712,104.183022 
	C457.221649,108.795464 457.860229,113.409149 457.841156,118.020126 
	C457.758392,138.031326 457.508514,158.042038 457.268494,178.052322 
	C457.149078,188.009720 457.099304,188.009125 466.851166,185.710785 
	C467.328278,182.524109 468.116913,179.263367 468.236725,175.978256 
	C468.409546,171.241486 468.010101,166.487061 468.006439,161.740067 
	C467.992126,143.181030 468.163086,124.619995 467.877014,106.065681 
	C467.846527,104.089134 465.490631,100.802589 463.824890,100.534004 
	C461.689545,100.189713 459.160309,102.288147 456.885712,104.183022 
z"/>
<path fill="#030303" opacity="1.000000" stroke="none" 
	d="
M371.698334,137.440262 
	C370.722382,138.355453 369.951843,138.948624 368.805603,139.831024 
	C374.325409,143.924805 375.398651,149.698425 375.170807,156.348846 
	C374.767426,168.121841 375.032715,179.917328 374.992645,191.703323 
	C374.970856,198.113464 371.240997,202.593506 364.729919,202.787659 
	C353.317780,203.127930 341.888153,202.882599 329.929596,202.882599 
	C329.929596,186.758255 329.988068,170.915222 329.856354,155.073776 
	C329.839661,153.069489 328.837280,151.070068 328.270599,149.074341 
	C326.576996,143.109833 324.779938,137.163147 329.728363,131.719528 
	C330.293091,131.098282 330.587952,129.996613 330.577637,129.122757 
	C330.408783,114.794357 330.170044,100.466766 329.956726,86.138855 
	C329.954559,85.993637 330.081848,85.846489 330.391541,85.168922 
	C340.359589,85.168922 350.579865,85.163750 360.800110,85.185051 
	C361.283478,85.186058 361.793365,85.594315 362.245514,85.523422 
	C372.000366,83.993858 374.394501,86.651344 374.168884,97.908905 
	C373.967560,107.953255 374.298370,118.009422 374.028595,128.050552 
	C373.946960,131.089951 372.646149,134.096603 371.698334,137.440262 
M356.454437,181.101807 
	C356.650238,179.942932 357.038605,178.779022 357.008545,177.626038 
	C356.876740,172.569260 356.558685,167.517212 356.435211,162.460358 
	C356.334747,158.345978 356.414795,154.227203 356.414795,150.195068 
	C347.262573,148.995468 347.271881,148.995667 347.095764,157.508774 
	C346.910950,166.443909 346.662598,175.378204 346.574463,184.314178 
	C346.565369,185.238174 347.353363,186.889801 347.949036,186.975906 
	C350.587677,187.357376 353.327606,187.531540 355.933746,187.137802 
	C356.346619,187.075409 356.262238,183.721542 356.454437,181.101807 
M353.340820,100.784355 
	C351.443848,100.962585 349.546906,101.140816 346.939880,101.385757 
	C346.939880,111.697411 346.939880,121.631363 346.939880,131.397980 
	C348.340118,131.942032 349.085907,132.295609 349.868073,132.525574 
	C355.856293,134.286224 356.722870,133.350143 356.510986,127.308037 
	C356.297668,121.225266 357.139191,115.100288 356.833405,109.028313 
	C356.694672,106.273514 359.176178,102.179604 353.340820,100.784355 
z"/>
<path fill="#030304" opacity="1.000000" stroke="none" 
	d="
M431.196259,176.032684 
	C431.017700,182.343765 431.087158,188.175140 430.693604,193.975067 
	C430.292267,199.890106 426.233795,203.113373 420.335754,203.092712 
	C411.396729,203.061401 402.454895,203.138184 393.518219,203.342331 
	C384.680878,203.544205 381.241028,200.572403 381.294861,191.722137 
	C381.442413,167.469910 381.812042,143.219101 382.015472,118.967079 
	C382.093475,109.668030 382.145721,100.361107 381.842041,91.069786 
	C381.692993,86.510399 382.468628,84.110123 387.760590,85.590446 
	C389.934540,86.198578 392.396576,85.687706 394.682373,86.008308 
	C397.380310,86.386749 400.149292,86.677147 400.132904,90.679123 
	C400.047852,111.425705 400.168304,132.173096 400.089752,152.919724 
	C400.052185,162.847473 399.713837,172.773819 399.551880,182.701447 
	C399.498352,185.981003 400.296265,187.733780 404.302246,186.262131 
	C406.064911,185.614563 408.467834,186.709991 411.743286,187.181503 
	C412.019653,185.605606 412.801666,183.194733 412.810944,180.780899 
	C412.918762,152.660141 412.870026,124.538803 412.953857,96.417892 
	C412.983887,86.352356 417.327454,83.487816 427.038666,86.783058 
	C429.874390,87.745285 431.246063,89.085251 431.043488,92.557747 
	C430.707062,98.324577 431.392090,104.142548 431.393311,109.939034 
	C431.397888,131.805725 431.300323,153.672455 431.196259,176.032684 
z"/>
<path fill="#040404" opacity="1.000000" stroke="none" 
	d="
M500.944977,84.581161 
	C510.473969,84.437492 519.582581,84.134827 528.687073,84.227242 
	C536.524963,84.306786 539.133850,87.737762 538.644897,95.543907 
	C538.285645,101.280334 538.574524,107.057365 538.574524,113.179611 
	C533.059021,113.179611 528.352539,113.179611 523.194702,113.179611 
	C523.194702,109.566505 523.358093,106.226898 523.092529,102.921745 
	C523.015564,101.963333 521.773315,100.399200 520.955811,100.325386 
	C518.028748,100.061111 515.030762,100.134109 512.116699,100.515511 
	C511.456055,100.601982 510.549377,102.446121 510.558655,103.473953 
	C510.730927,122.529793 511.040863,141.584335 511.283691,160.639633 
	C511.355499,166.274109 511.360748,171.910660 511.296753,177.545120 
	C511.267029,180.160889 510.998566,182.773941 510.804352,185.942108 
	C513.226746,186.276505 516.307739,187.199707 519.265442,186.901199 
	C520.755920,186.750763 523.219849,184.365097 523.197937,183.023575 
	C523.046570,173.758331 522.328308,164.503326 521.854187,155.241852 
	C521.696228,152.156952 522.421082,148.830734 518.506775,147.239883 
	C517.956482,147.016266 517.688293,145.558350 517.668396,144.663315 
	C517.580139,140.702301 517.630249,136.738205 517.630249,131.816467 
	C524.483398,131.816467 530.597290,131.599411 536.665955,132.025299 
	C537.704773,132.098190 539.348572,134.909363 539.361389,136.466690 
	C539.475159,150.258514 539.261841,164.052750 539.195374,177.846512 
	C539.173035,182.481857 539.363647,187.118301 539.335571,191.753525 
	C539.290527,199.198700 535.457825,203.097061 528.012268,203.154434 
	C519.866699,203.217224 511.719360,203.155365 503.573669,203.066635 
	C497.210907,202.997330 493.134247,199.390030 492.868744,193.057755 
	C492.521973,184.787918 492.601807,176.499634 492.528168,168.219025 
	C492.351868,148.401337 492.107269,128.583603 492.081848,108.765648 
	C492.074615,103.124763 491.965302,97.282402 493.380463,91.922562 
	C494.138611,89.051163 498.039917,87.009651 500.944977,84.581161 
M523.049316,178.674179 
	C523.142883,179.558884 523.236389,180.443588 523.329956,181.328293 
	C523.825806,181.194305 524.321655,181.060318 524.817505,180.926315 
	C524.386658,179.919922 523.955811,178.913528 523.049316,178.674179 
z"/>
<path fill="#DB9813" opacity="1.000000" stroke="none" 
	d="
M249.783875,272.885956 
	C246.170761,269.685913 243.908875,265.951233 245.381424,260.620300 
	C248.440292,261.945160 251.008987,263.872131 253.884628,265.049347 
	C267.268311,270.528229 281.564758,272.378571 295.717651,272.691650 
	C310.555145,273.019836 325.472473,271.217529 340.299316,269.774811 
	C345.781769,269.241364 351.105988,267.081635 356.502350,265.663574 
	C356.390808,265.227203 356.279236,264.790833 356.167664,264.354492 
	C339.738434,268.832977 323.001007,270.447815 306.060120,269.973572 
	C300.099365,269.806671 294.047607,269.903351 288.212433,268.880768 
	C277.170135,266.945618 266.165527,264.624878 255.330322,261.763428 
	C251.040848,260.630615 247.124527,257.717224 247.979050,251.984619 
	C247.997055,250.930817 248.015076,249.877029 248.378464,248.600998 
	C253.492569,250.921661 258.005890,254.290924 263.076172,255.858246 
	C280.910828,261.371216 299.395477,261.629913 317.833862,260.918152 
	C335.542999,260.234619 353.356140,259.435120 368.837097,248.982330 
	C368.429962,252.088531 368.022797,255.194733 367.106628,258.887512 
	C367.199219,268.888763 361.498871,273.073883 353.454010,275.314606 
	C352.655640,275.537018 351.861694,275.775452 351.061981,275.992706 
	C335.566528,280.202484 319.766022,281.487823 303.767670,281.021332 
	C298.990448,280.882019 294.205688,280.999847 289.424377,280.999847 
	C296.625671,282.743286 303.852600,283.972748 311.059143,283.863220 
	C322.968201,283.682159 334.946594,283.280304 346.741547,281.768433 
	C357.690979,280.364929 368.857544,278.577454 377.835510,271.015350 
	C378.295197,279.781281 377.719055,281.415039 370.801788,284.189056 
	C366.650024,285.853973 363.546539,287.970062 361.850098,292.817017 
	C354.609070,295.858673 348.005341,299.001526 341.062439,300.911316 
	C334.091522,302.828857 326.782593,303.517670 319.213806,304.700562 
	C300.022095,300.404663 281.084473,298.522491 261.615540,300.725830 
	C257.759003,299.244232 254.084824,298.160156 250.561829,296.709106 
	C243.100296,293.635864 241.704239,291.185059 242.581528,283.034851 
	C245.543121,284.765381 248.011353,286.809601 250.836090,288.025909 
	C264.307159,293.826324 278.821991,295.057068 293.115021,295.713745 
	C306.452393,296.326477 319.903076,294.698730 333.290070,293.841827 
	C336.456146,293.639130 339.567017,292.573792 342.703278,291.905304 
	C337.760834,291.539154 333.061981,292.692230 328.322418,292.895050 
	C308.668274,293.736084 289.193420,292.019012 270.244476,286.667725 
	C265.566498,285.346588 259.949524,282.625122 257.690460,278.813202 
	C255.497879,275.113464 253.546478,273.414337 249.783875,272.885956 
z"/>
<path fill="#030304" opacity="1.000000" stroke="none" 
	d="
M541.967285,230.953827 
	C549.296631,234.462479 556.231262,237.891342 563.706299,241.587433 
	C559.195251,246.038452 555.667786,249.518890 551.836426,253.299225 
	C540.847717,244.796143 528.399231,242.077011 514.842896,245.166153 
	C504.692780,247.479095 496.707458,253.305588 490.454865,261.483673 
	C477.885284,277.924072 479.315857,301.124908 493.266968,316.548187 
	C507.046570,331.781860 532.230103,335.993439 551.945984,321.399353 
	C555.251648,324.978577 558.592651,328.596039 561.948364,332.229462 
	C548.179260,346.781189 517.347107,351.748535 494.603424,337.777344 
	C469.214722,322.181396 459.088104,290.234497 471.060303,263.232391 
	C483.108948,236.057999 512.998657,222.341522 541.967285,230.953827 
z"/>
<path fill="#030304" opacity="1.000000" stroke="none" 
	d="
M580.508484,319.671906 
	C583.495728,318.370117 584.809448,319.331970 586.439026,321.687317 
	C594.132324,332.807068 609.944641,333.388824 618.751282,323.123138 
	C624.991333,315.849335 624.175659,306.260895 616.142517,301.044678 
	C611.491760,298.024750 605.960266,296.355225 600.810852,294.110687 
	C595.203003,291.666351 589.172729,289.909546 584.044067,286.704834 
	C572.559265,279.528412 567.614075,267.256805 570.309448,254.929382 
	C573.261108,241.430038 583.779297,231.068954 596.760071,228.873978 
	C614.476929,225.878174 631.523987,236.299622 634.912659,252.555939 
	C630.746704,253.424042 626.599854,254.587494 622.380493,254.989136 
	C621.075745,255.113342 619.166199,253.450531 618.229736,252.117035 
	C613.117676,244.837418 604.614014,242.017899 596.735229,245.253021 
	C589.023804,248.419418 583.887573,256.829620 586.104919,264.495331 
	C587.165466,268.161530 589.834717,272.162750 592.954895,274.243652 
	C597.543640,277.303986 603.261292,278.622498 608.363770,280.974365 
	C614.361206,283.738708 620.763062,286.062561 626.026489,289.898834 
	C640.843689,300.698456 642.865173,319.142914 631.037354,333.182739 
	C622.206787,343.664795 610.510437,348.040039 597.092957,345.718048 
	C583.715820,343.403076 574.291870,335.530182 569.200562,322.100189 
	C573.031433,321.281494 576.568970,320.525482 580.508484,319.671906 
z"/>
<path fill="#030304" opacity="1.000000" stroke="none" 
	d="
M543.028198,135.455841 
	C543.783325,132.767441 544.697388,130.546616 544.943909,128.253998 
	C546.321472,115.441460 545.229248,102.606728 545.271057,89.780739 
	C545.276306,88.189034 547.977966,85.248940 549.451660,85.235237 
	C560.606873,85.131531 571.766174,85.700745 582.926941,85.837273 
	C586.504822,85.881042 587.463196,87.320564 587.186218,90.684296 
	C586.888733,94.297577 587.118958,97.954300 587.118958,101.968842 
	C579.608093,101.968842 572.371704,101.968842 564.095642,101.968842 
	C564.095642,106.403549 564.250671,110.489716 564.055664,114.559113 
	C563.821411,119.448112 562.953125,124.333633 563.109314,129.196579 
	C563.151245,130.501663 565.847046,132.680420 567.451782,132.803848 
	C573.193359,133.245499 578.989624,132.976822 585.175598,132.976822 
	C585.175598,138.993576 585.175598,144.237213 585.175598,150.156769 
	C579.676941,150.156769 574.399109,150.289841 569.132080,150.109283 
	C565.704712,149.991806 564.236328,150.555618 564.395935,154.737015 
	C564.765686,164.421097 564.203186,174.138214 564.339050,183.837448 
	C564.353577,184.870819 566.423340,186.646896 567.653198,186.752167 
	C571.949585,187.119888 576.300049,187.028564 580.621704,186.876648 
	C584.640198,186.735413 586.326782,188.397552 586.313049,192.473648 
	C586.275635,203.583069 586.365967,203.626709 575.580139,203.557129 
	C567.165955,203.502823 558.746094,203.080643 550.341553,203.303619 
	C546.221313,203.412918 545.690308,201.510910 545.727722,198.217041 
	C545.874756,185.274139 546.088989,172.326187 545.840515,159.388535 
	C545.775696,156.012177 543.719177,152.715134 543.310303,149.294067 
	C542.781799,144.872131 542.988708,140.362259 543.028198,135.455841 
z"/>
<path fill="#DB9713" opacity="1.000000" stroke="none" 
	d="
M234.845917,277.008118 
	C234.910568,277.447449 234.975220,277.886780 235.021805,279.067688 
	C234.030289,283.447479 233.056839,287.085754 232.061493,291.155518 
	C231.864471,297.770111 228.960693,301.330231 221.832642,303.896484 
	C207.623459,309.011993 192.736176,310.141632 177.855988,310.909241 
	C168.691513,311.382019 159.482788,310.996826 150.042175,310.996826 
	C153.793533,311.341431 157.364456,311.989868 160.925659,311.940247 
	C175.192642,311.741547 189.518021,312.023407 203.702545,310.773773 
	C215.343750,309.748199 227.168854,307.872375 236.876328,300.439880 
	C237.032776,302.179016 237.129471,303.518066 236.834137,304.936218 
	C232.089783,306.619049 227.611099,307.953125 223.426102,309.913971 
	C220.223022,311.414734 217.511353,313.786621 217.613785,318.023346 
	C215.433838,318.374878 213.645721,318.722595 211.419891,319.049927 
	C209.654083,319.076050 208.326340,319.144012 206.997849,319.165894 
	C188.911148,319.463531 170.788025,320.551086 152.752075,319.728851 
	C142.982742,319.283508 133.255707,315.939026 123.737556,313.129974 
	C120.802505,312.263794 116.853767,309.102814 116.484276,306.542908 
	C115.842979,302.100006 113.375275,299.921326 110.505821,297.510956 
	C110.366547,294.968903 110.227272,292.426849 110.428802,289.634155 
	C115.769142,291.912292 120.523788,295.407715 125.823807,296.750305 
	C134.447723,298.934937 143.396317,299.982361 152.264648,301.028778 
	C173.223343,303.501892 194.024521,302.028320 214.599640,297.536926 
	C218.074631,296.778351 221.327881,295.004059 224.683578,293.699066 
	C224.524216,293.273712 224.364838,292.848358 224.205460,292.423035 
	C223.602692,292.531525 222.975693,292.567413 222.400681,292.759125 
	C208.054764,297.542389 193.132675,298.440857 178.218048,298.893463 
	C169.942429,299.144592 161.526215,299.044067 153.367691,297.813660 
	C142.607986,296.190887 131.955872,293.614655 121.429810,290.803253 
	C117.327019,289.707458 113.463203,287.042023 113.856720,281.584076 
	C113.915764,280.322052 113.974800,279.060059 114.379501,277.591156 
	C118.251427,279.463684 121.550781,282.634369 125.345352,283.423370 
	C138.086792,286.072601 150.945724,289.019836 163.871307,289.685425 
	C177.684189,290.396667 191.689514,289.259979 205.486481,287.774719 
	C215.943604,286.648956 226.593979,284.749756 234.845917,277.008118 
M143.479568,309.123138 
	C143.305084,309.285065 143.130600,309.446991 142.956116,309.608917 
	C143.220810,309.678131 143.485489,309.747375 143.750183,309.816589 
	C143.786926,309.608551 143.823654,309.400513 143.479568,309.123138 
M229.508423,290.446411 
	C229.508423,290.446411 229.545181,290.518829 229.508423,290.446411 
z"/>
<path fill="#F3A713" opacity="1.000000" stroke="none" 
	d="
M218.005630,318.019531 
	C217.511353,313.786621 220.223022,311.414734 223.426102,309.913971 
	C227.611099,307.953125 232.089783,306.619049 237.204285,304.859222 
	C242.953232,303.744843 247.940033,302.786560 253.347321,301.871765 
	C256.467346,301.595856 259.166901,301.276459 261.866425,300.957062 
	C281.084473,298.522491 300.022095,300.404663 319.565247,304.699585 
	C324.826080,306.176483 329.327393,307.609924 333.828735,309.043396 
	C335.868378,311.791046 337.907990,314.538696 339.598907,317.836060 
	C335.458130,320.652283 331.921692,324.046844 327.826324,324.974976 
	C315.276337,327.819183 302.565948,331.201202 289.819214,331.665955 
	C265.164398,332.564789 240.330429,332.229523 217.999390,318.747009 
	C218.001312,318.504578 218.005630,318.019531 218.005630,318.019531 
z"/>
<path fill="#F3A713" opacity="1.000000" stroke="none" 
	d="
M368.902863,248.576797 
	C353.356140,259.435120 335.542999,260.234619 317.833862,260.918152 
	C299.395477,261.629913 280.910828,261.371216 263.076172,255.858246 
	C258.005890,254.290924 253.492569,250.921661 248.444382,248.211288 
	C247.190979,243.573563 249.722351,240.711334 253.318359,239.487717 
	C261.297485,236.772629 269.357544,233.879669 277.625000,232.506714 
	C301.125153,228.604095 324.690704,229.069412 348.034302,234.007706 
	C353.503967,235.164780 358.788055,237.368591 364.014038,239.450867 
	C367.757690,240.942505 369.743835,243.886215 368.902863,248.576797 
z"/>
<path fill="#F3A713" opacity="1.000000" stroke="none" 
	d="
M234.911804,276.615448 
	C226.593979,284.749756 215.943604,286.648956 205.486481,287.774719 
	C191.689514,289.259979 177.684189,290.396667 163.871307,289.685425 
	C150.945724,289.019836 138.086792,286.072601 125.345352,283.423370 
	C121.550781,282.634369 118.251427,279.463684 114.445267,277.217468 
	C112.991898,272.139099 115.714722,269.065155 119.758781,267.846161 
	C128.937805,265.079193 138.184143,262.013214 147.628021,260.749817 
	C171.517822,257.553833 195.419907,257.999725 218.933060,264.057800 
	C223.062210,265.121643 227.259842,266.735962 230.769348,269.079254 
	C232.839233,270.461334 233.618179,273.776825 234.911804,276.615448 
z"/>
<path fill="#030303" opacity="1.000000" stroke="none" 
	d="
M606.603638,136.585114 
	C606.556152,126.357552 606.306091,116.577087 606.478943,106.804100 
	C606.544312,103.109619 604.506348,103.106735 602.114624,103.439194 
	C593.422302,104.647461 593.408813,104.680595 592.846558,96.308609 
	C592.824341,95.977600 592.745850,95.650520 592.720642,95.319542 
	C591.917358,84.791214 594.655884,82.586815 605.004272,85.226265 
	C606.651672,85.646461 608.484192,85.662308 610.189819,85.479538 
	C619.225159,84.511322 628.188660,84.816002 636.992554,85.740364 
	C636.992554,92.230515 636.992554,97.806244 636.992554,103.350403 
	C633.630066,103.586060 630.547424,103.458275 627.672058,104.168922 
	C626.483215,104.462746 624.972351,106.520485 624.915039,107.833038 
	C624.512024,117.064560 624.285095,126.311539 624.317139,135.552490 
	C624.367004,149.927795 624.702759,164.301880 624.846863,178.677170 
	C624.926086,186.576385 624.861023,194.477051 624.861023,202.877884 
	C619.407349,203.316772 615.026001,203.771820 610.632935,203.990677 
	C607.077820,204.167770 605.647156,202.291977 605.758057,198.729233 
	C606.186707,184.953766 606.557495,171.175339 606.786011,157.395279 
	C606.898438,150.611649 606.652893,143.822067 606.603638,136.585114 
z"/>
<path fill="#020203" opacity="1.000000" stroke="none" 
	d="
M119.883942,111.191055 
	C119.886307,103.805664 120.052155,96.893127 119.832062,89.992897 
	C119.716324,86.364113 121.261826,84.822807 124.639397,84.778114 
	C128.911301,84.721581 133.184509,84.764458 138.493805,84.764458 
	C138.761353,88.901955 139.227432,93.070587 139.267395,97.243301 
	C139.461166,117.474434 139.586823,137.706558 139.634598,157.938568 
	C139.650589,164.708176 139.365250,171.478485 139.215408,178.248444 
	C139.189728,179.408478 139.409332,180.648178 139.077209,181.714539 
	C137.489670,186.811905 137.981140,187.316391 143.102356,186.604233 
	C145.835587,186.224152 148.665146,186.536804 152.289078,186.536804 
	C152.500290,190.656097 152.879395,194.808823 152.866013,198.960281 
	C152.857483,201.607697 151.520477,203.003265 148.431595,202.983032 
	C140.824234,202.933212 133.212784,203.238983 125.605881,203.489914 
	C121.517990,203.624802 119.782425,202.192078 119.810196,197.701279 
	C119.987556,169.024796 119.892525,140.346634 119.883942,111.191055 
z"/>
<path fill="#000000" opacity="1.000000" stroke="none" 
	d="
M472.775391,329.900421 
	C474.117126,330.752258 475.661377,331.555939 475.724152,332.462189 
	C475.998169,336.418884 475.841980,340.405304 475.841980,344.709717 
	C453.860382,344.709717 432.146240,344.709717 410.164734,344.709717 
	C410.164734,306.330078 410.164734,267.937775 410.164734,229.272980 
	C415.061890,229.272980 419.948273,229.272980 425.183350,229.272980 
	C425.183350,262.740601 425.183350,295.995392 425.183350,329.899445 
	C441.113373,329.899445 456.704742,329.899445 472.775391,329.900421 
z"/>
<path fill="#DB9814" opacity="1.000000" stroke="none" 
	d="
M217.997467,318.989410 
	C240.330429,332.229523 265.164398,332.564789 289.819214,331.665955 
	C302.565948,331.201202 315.276337,327.819183 327.826324,324.974976 
	C331.921692,324.046844 335.458130,320.652283 339.522827,318.211517 
	C340.271820,327.872101 339.714020,328.650635 331.105194,333.009918 
	C329.593964,333.775116 328.692627,335.710480 327.450378,337.050476 
	C326.117950,338.487701 324.715607,339.860138 322.751892,341.577271 
	C317.623688,343.485107 313.188873,345.516754 308.533081,346.589417 
	C291.104645,350.604980 273.370758,351.812805 255.566071,350.687317 
	C241.828506,349.818939 228.039078,348.664856 215.074646,343.328827 
	C206.931366,339.977203 205.601837,337.763397 206.482346,329.170349 
	C210.993607,331.568268 215.006485,334.729034 219.516174,335.802429 
	C229.289597,338.128754 239.264404,340.274414 249.253601,340.869202 
	C263.372864,341.709991 277.579590,341.082275 291.748901,341.082275 
	C291.750488,340.388397 291.752045,339.694489 291.753632,339.000610 
	C279.183960,339.000610 266.570618,339.637054 254.059753,338.779358 
	C245.557144,338.196472 237.030960,336.079498 228.819504,333.629211 
	C219.687973,330.904327 218.013153,327.896088 217.997467,318.989410 
z"/>
<path fill="#B4B4C3" opacity="1.000000" stroke="none" 
	d="
M206.209213,328.986786 
	C205.601837,337.763397 206.931366,339.977203 215.074646,343.328827 
	C228.039078,348.664856 241.828506,349.818939 255.566071,350.687317 
	C273.370758,351.812805 291.104645,350.604980 308.533081,346.589417 
	C313.188873,345.516754 317.623688,343.485107 322.526917,341.823395 
	C321.459290,343.396332 320.304260,346.021118 318.544464,346.522278 
	C307.737671,349.599792 296.919250,353.012054 285.858612,354.710114 
	C276.073761,356.212311 265.906097,356.480530 256.020111,355.756042 
	C242.673065,354.777954 229.341965,352.802826 216.196899,350.258911 
	C211.424377,349.335358 206.217728,346.414673 203.038406,342.797424 
	C200.337677,339.724701 199.784149,334.404755 199.185196,329.957275 
	C198.696198,326.326202 197.456665,324.925751 193.867783,325.199890 
	C171.068817,326.941437 148.358521,326.893005 126.105331,320.724152 
	C122.343018,319.681213 118.592590,317.949402 115.366325,315.756592 
	C109.146461,311.528992 107.620552,305.700165 110.264420,297.900818 
	C113.375275,299.921326 115.842979,302.100006 116.484276,306.542908 
	C116.853767,309.102814 120.802505,312.263794 123.737556,313.129974 
	C133.255707,315.939026 142.982742,319.283508 152.752075,319.728851 
	C170.788025,320.551086 188.911148,319.463531 206.997849,319.165894 
	C208.326340,319.144012 209.654083,319.076050 211.336578,319.370972 
	C209.041611,322.317932 204.976700,324.086792 206.209213,328.986786 
z"/>
<path fill="#F2A613" opacity="1.000000" stroke="none" 
	d="
M249.453613,272.942200 
	C253.546478,273.414337 255.497879,275.113464 257.690460,278.813202 
	C259.949524,282.625122 265.566498,285.346588 270.244476,286.667725 
	C289.193420,292.019012 308.668274,293.736084 328.322418,292.895050 
	C333.061981,292.692230 337.760834,291.539154 342.703278,291.905304 
	C339.567017,292.573792 336.456146,293.639130 333.290070,293.841827 
	C319.903076,294.698730 306.452393,296.326477 293.115021,295.713745 
	C278.821991,295.057068 264.307159,293.826324 250.836090,288.025909 
	C248.011353,286.809601 245.543121,284.765381 242.486969,282.763367 
	C241.994827,282.244873 241.926285,282.065704 241.905548,281.527039 
	C242.335999,279.791962 242.718689,278.416443 243.101349,277.040924 
	C245.108688,275.693420 247.116028,274.345947 249.453613,272.942200 
z"/>
<path fill="#F2A613" opacity="1.000000" stroke="none" 
	d="
M377.901123,270.616943 
	C368.857544,278.577454 357.690979,280.364929 346.741547,281.768433 
	C334.946594,283.280304 322.968201,283.682159 311.059143,283.863220 
	C303.852600,283.972748 296.625671,282.743286 289.424377,280.999847 
	C294.205688,280.999847 298.990448,280.882019 303.767670,281.021332 
	C319.766022,281.487823 335.566528,280.202484 351.061981,275.992706 
	C351.861694,275.775452 352.655640,275.537018 353.454010,275.314606 
	C361.498871,273.073883 367.199219,268.888763 366.895538,259.191650 
	C369.348602,260.028290 371.533813,261.093567 373.651642,262.279205 
	C376.732666,264.004028 378.576447,266.459595 377.901123,270.616943 
z"/>
<path fill="#F2A613" opacity="1.000000" stroke="none" 
	d="
M113.533150,281.749298 
	C113.463203,287.042023 117.327019,289.707458 121.429810,290.803253 
	C131.955872,293.614655 142.607986,296.190887 153.367691,297.813660 
	C161.526215,299.044067 169.942429,299.144592 178.218048,298.893463 
	C193.132675,298.440857 208.054764,297.542389 222.400681,292.759125 
	C222.975693,292.567413 223.602692,292.531525 224.205460,292.423035 
	C224.364838,292.848358 224.524216,293.273712 224.683578,293.699066 
	C221.327881,295.004059 218.074631,296.778351 214.599640,297.536926 
	C194.024521,302.028320 173.223343,303.501892 152.264648,301.028778 
	C143.396317,299.982361 134.447723,298.934937 125.823807,296.750305 
	C120.523788,295.407715 115.769142,291.912292 110.495880,289.205078 
	C111.217957,286.655914 112.213768,284.285217 113.533150,281.749298 
z"/>
<path fill="#F2A613" opacity="1.000000" stroke="none" 
	d="
M247.675781,252.179596 
	C247.124527,257.717224 251.040848,260.630615 255.330322,261.763428 
	C266.165527,264.624878 277.170135,266.945618 288.212433,268.880768 
	C294.047607,269.903351 300.099365,269.806671 306.060120,269.973572 
	C323.001007,270.447815 339.738434,268.832977 356.167664,264.354492 
	C356.279236,264.790833 356.390808,265.227203 356.502350,265.663574 
	C351.105988,267.081635 345.781769,269.241364 340.299316,269.774811 
	C325.472473,271.217529 310.555145,273.019836 295.717651,272.691650 
	C281.564758,272.378571 267.268311,270.528229 253.884628,265.049347 
	C251.008987,263.872131 248.440292,261.945160 245.447205,260.191376 
	C245.900314,257.470978 246.636414,254.922775 247.675781,252.179596 
z"/>
<path fill="#C1C0CD" opacity="1.000000" stroke="none" 
	d="
M334.137817,308.826721 
	C329.327393,307.609924 324.826080,306.176483 319.973267,304.744019 
	C326.782593,303.517670 334.091522,302.828857 341.062439,300.911316 
	C348.005341,299.001526 354.609070,295.858673 361.687164,293.134521 
	C360.053192,295.479706 358.587036,298.927399 356.032745,300.212982 
	C350.445404,303.024933 344.300476,304.725342 338.395569,306.912750 
	C337.053864,307.409760 335.761780,308.040771 334.137817,308.826721 
z"/>
<path fill="#C5C5D4" opacity="1.000000" stroke="none" 
	d="
M242.718140,277.031860 
	C242.718689,278.416443 242.335999,279.791962 241.550629,281.622681 
	C236.466660,285.795380 236.650375,292.465271 241.991074,296.194519 
	C245.323013,298.521149 249.260880,299.980011 252.926834,301.828278 
	C247.940033,302.786560 242.953232,303.744843 237.596283,304.780090 
	C237.129471,303.518066 237.032776,302.179016 236.938232,300.030884 
	C237.670380,295.046570 235.888077,292.307343 232.083405,290.723999 
	C233.056839,287.085754 234.030289,283.447479 235.076843,279.396973 
	C237.544937,278.330719 239.939911,277.676758 242.718140,277.031860 
z"/>
<path fill="#D2D4E9" opacity="1.000000" stroke="none" 
	d="
M177.135620,137.998306 
	C177.121521,125.929909 177.121521,114.361931 177.121521,102.451424 
	C181.083038,102.175949 184.648895,101.927986 188.996399,101.625671 
	C188.996399,109.279037 188.997864,116.819733 188.996109,124.360420 
	C188.991898,142.660202 188.946640,160.960190 189.042404,179.259445 
	C189.051941,181.085312 189.915543,182.906708 190.553482,185.396408 
	C186.324615,185.396408 181.806931,185.396408 177.149719,185.396408 
	C177.149719,169.970444 177.149719,154.234589 177.135620,137.998306 
z"/>
<path fill="#D1D3E8" opacity="1.000000" stroke="none" 
	d="
M456.843262,103.758553 
	C459.160309,102.288147 461.689545,100.189713 463.824890,100.534004 
	C465.490631,100.802589 467.846527,104.089134 467.877014,106.065681 
	C468.163086,124.619995 467.992126,143.181030 468.006439,161.740067 
	C468.010101,166.487061 468.409546,171.241486 468.236725,175.978256 
	C468.116913,179.263367 467.328278,182.524109 466.851166,185.710785 
	C457.099304,188.009125 457.149078,188.009720 457.268494,178.052322 
	C457.508514,158.042038 457.758392,138.031326 457.841156,118.020126 
	C457.860229,113.409149 457.221649,108.795464 456.843262,103.758553 
z"/>
<path fill="#D1D3E8" opacity="1.000000" stroke="none" 
	d="
M356.431091,181.495636 
	C356.262238,183.721542 356.346619,187.075409 355.933746,187.137802 
	C353.327606,187.531540 350.587677,187.357376 347.949036,186.975906 
	C347.353363,186.889801 346.565369,185.238174 346.574463,184.314178 
	C346.662598,175.378204 346.910950,166.443909 347.095764,157.508774 
	C347.271881,148.995667 347.262573,148.995468 356.414795,150.195068 
	C356.414795,154.227203 356.334747,158.345978 356.435211,162.460358 
	C356.558685,167.517212 356.876740,172.569260 357.008545,177.626038 
	C357.038605,178.779022 356.650238,179.942932 356.431091,181.495636 
z"/>
<path fill="#D1D3E8" opacity="1.000000" stroke="none" 
	d="
M353.790375,100.775208 
	C359.176178,102.179604 356.694672,106.273514 356.833405,109.028313 
	C357.139191,115.100288 356.297668,121.225266 356.510986,127.308037 
	C356.722870,133.350143 355.856293,134.286224 349.868073,132.525574 
	C349.085907,132.295609 348.340118,131.942032 346.939880,131.397980 
	C346.939880,121.631363 346.939880,111.697411 346.939880,101.385757 
	C349.546906,101.140816 351.443848,100.962585 353.790375,100.775208 
z"/>
<path fill="#D8DAF0" opacity="1.000000" stroke="none" 
	d="
M523.287109,178.290649 
	C523.955811,178.913528 524.386658,179.919922 524.817505,180.926315 
	C524.321655,181.060318 523.825806,181.194305 523.329956,181.328293 
	C523.236389,180.443588 523.142883,179.558884 523.287109,178.290649 
z"/>
<path fill="#A9A8B2" opacity="1.000000" stroke="none" 
	d="
M253.347321,301.871765 
	C249.260880,299.980011 245.323013,298.521149 241.991074,296.194519 
	C236.650375,292.465271 236.466660,285.795380 241.502853,281.982239 
	C241.926285,282.065704 241.994827,282.244873 242.157898,282.695526 
	C241.704239,291.185059 243.100296,293.635864 250.561829,296.709106 
	C254.084824,298.160156 257.759003,299.244232 261.615540,300.725830 
	C259.166901,301.276459 256.467346,301.595856 253.347321,301.871765 
z"/>
<path fill="#F2A613" opacity="1.000000" stroke="none" 
	d="
M206.482346,329.170349 
	C204.976700,324.086792 209.041611,322.317932 211.774292,319.391357 
	C213.645721,318.722595 215.433838,318.374878 217.613785,318.023346 
	C218.005630,318.019531 218.001312,318.504578 217.999390,318.747009 
	C218.013153,327.896088 219.687973,330.904327 228.819504,333.629211 
	C237.030960,336.079498 245.557144,338.196472 254.059753,338.779358 
	C266.570618,339.637054 279.183960,339.000610 291.753632,339.000610 
	C291.752045,339.694489 291.750488,340.388397 291.748901,341.082275 
	C277.579590,341.082275 263.372864,341.709991 249.253601,340.869202 
	C239.264404,340.274414 229.289597,338.128754 219.516174,335.802429 
	C215.006485,334.729034 210.993607,331.568268 206.482346,329.170349 
z"/>
<path fill="#F2A613" opacity="1.000000" stroke="none" 
	d="
M232.061493,291.155518 
	C235.888077,292.307343 237.670380,295.046570 236.878464,299.630737 
	C227.168854,307.872375 215.343750,309.748199 203.702545,310.773773 
	C189.518021,312.023407 175.192642,311.741547 160.925659,311.940247 
	C157.364456,311.989868 153.793533,311.341431 150.042175,310.996826 
	C159.482788,310.996826 168.691513,311.382019 177.855988,310.909241 
	C192.736176,310.141632 207.623459,309.011993 221.832642,303.896484 
	C228.960693,301.330231 231.864471,297.770111 232.061493,291.155518 
z"/>
<path fill="#F2A613" opacity="1.000000" stroke="none" 
	d="
M143.669983,309.157806 
	C143.823654,309.400513 143.786926,309.608551 143.750183,309.816589 
	C143.485489,309.747375 143.220810,309.678131 142.956116,309.608917 
	C143.130600,309.446991 143.305084,309.285065 143.669983,309.157806 
z"/>
<path fill="#F2A613" opacity="1.000000" stroke="none" 
	d="
M229.526794,290.482605 
	C229.545181,290.518829 229.508423,290.446411 229.526794,290.482605 
z"/>
</svg>