<?xml version="1.0" encoding="UTF-8" standalone="no"?>
<svg
   xmlns:dc="http://purl.org/dc/elements/1.1/"
   xmlns:cc="http://creativecommons.org/ns#"
   xmlns:rdf="http://www.w3.org/1999/02/22-rdf-syntax-ns#"
   xmlns:svg="http://www.w3.org/2000/svg"
   xmlns="http://www.w3.org/2000/svg"
   viewBox="0 0 1000 1000"
   height="1000"
   width="1000"
   xml:space="preserve"
   id="svg2"
   version="1.1"><metadata
     id="metadata8"><rdf:RDF><cc:Work
         rdf:about=""><dc:format>image/svg+xml</dc:format><dc:type
           rdf:resource="http://purl.org/dc/dcmitype/StillImage" /></cc:Work></rdf:RDF></metadata><defs
     id="defs6" /><g
     transform="matrix(1.3333333,0,0,-1.3333333,0,1000)"
     id="g10"><path
       id="path12"
       style="fill:#020203;fill-opacity:0.70588235;fill-rule:nonzero;stroke:none"
       d="m 474.73,258 c 0.21,-1.93 0.21,-5.52 0,-8 -0.21,-2.48 -0.38,-0.9 -0.39,3.5 0,4.4 0.17,6.43 0.39,4.5 z" /><path
       id="path14"
       style="fill:#da9b22;fill-opacity:0.49019608;fill-rule:nonzero;stroke:none"
       d="m 210.5,271.77 -4,-0.83 c -2.2,-0.45 -6.47,-0.78 -15,-0.6 l 6,0.66 c 3.3,0.37 7.57,0.69 13,0.77 z" /><path
       id="path16"
       style="fill:#da9b22;fill-opacity:0.49019608;fill-rule:nonzero;stroke:none"
       d="m 330.5,287.84 -3.43,-1.41 c -2.07,-0.84 -4.64,-1.13 -6.5,-0.72 -3.06,0.67 -3.06,0.67 -0.57,1.38 1.38,0.39 4.3,0.72 10.5,0.75 z" /><path
       id="path18"
       style="fill:#da9b22;fill-opacity:0.49019608;fill-rule:nonzero;stroke:none"
       d="m 239.72,303.03 c 0.43,0.01 1.34,-1.11 2.03,-2.5 0.69,-1.39 3.39,-3.6 6,-4.92 2.61,-1.31 6.78,-2.97 9.25,-3.69 3.7,-1.07 4.15,-1.43 2.5,-2.04 -1.1,-0.41 -3.35,-0.76 -5,-0.78 -1.65,-0.02 -5.81,1.3 -9.25,2.93 -3.44,1.63 -6.65,3.76 -7.13,4.72 -0.5,0.98 -0.51,2.73 -0.03,4 0.47,1.24 1.21,2.26 1.63,2.28 z" /><path
       id="path20"
       style="fill:#e8a012;fill-opacity:0.99215686;fill-rule:nonzero;stroke:none"
       d="m 313,360.38 c 7.43,-0.25 18.23,-1.13 24,-1.94 5.77,-0.82 12.98,-2.21 16,-3.09 3.02,-0.88 6.74,-2.22 8.25,-2.98 1.51,-0.75 3.65,-2.27 4.75,-3.37 1.57,-1.57 2,-3.35 2.02,-8.25 0.01,-3.78 -0.49,-6.71 -1.25,-7.42 -1,-0.93 -0.53,-1.53 2.23,-2.87 1.93,-0.93 4.52,-2.65 5.78,-3.83 1.87,-1.76 2.27,-3.18 2.27,-8.13 0,-4.94 -0.4,-6.39 -2.27,-8.18 -1.26,-1.2 -4.3,-3.04 -6.78,-4.08 -3.22,-1.36 -4.71,-2.66 -5.25,-4.57 -0.41,-1.47 -1.99,-3.54 -3.5,-4.6 -1.51,-1.07 -5.45,-2.88 -8.75,-4.03 -3.3,-1.14 -9.82,-2.71 -14.5,-3.48 -4.68,-0.77 -10.75,-1.7 -18.5,-2.73 l 7.95,-2.66 c 4.63,-1.56 9.11,-3.82 10.75,-5.42 2.33,-2.29 2.8,-3.59 2.8,-7.75 0,-2.75 -0.45,-5.9 -1,-7 -0.55,-1.1 -3.14,-3.07 -5.75,-4.37 -2.67,-1.34 -5.3,-3.53 -6,-5 -0.69,-1.45 -2.71,-3.54 -4.5,-4.65 -1.79,-1.11 -6.18,-2.93 -9.75,-4.05 -3.57,-1.12 -11,-2.66 -16.5,-3.42 -5.5,-0.77 -14.73,-1.69 -20.5,-2.05 -5.81,-0.37 -16.53,-0.16 -24,0.47 -7.43,0.63 -17.55,1.97 -22.5,2.97 -4.95,1.01 -11.43,2.91 -14.41,4.22 -2.97,1.31 -6.25,3.51 -7.28,4.88 -1.28,1.7 -1.86,4.1 -1.83,7.5 0.05,4.07 0.56,5.51 2.79,7.74 1.5,1.51 2.51,2.99 2.23,3.29 -0.28,0.3 -5.45,0.08 -11.5,-0.5 -6.05,-0.57 -16.18,-1.02 -22.5,-1.01 -6.32,0.02 -15.78,0.45 -21,0.95 -5.22,0.51 -13.1,1.65 -17.5,2.55 -4.4,0.9 -10.65,2.83 -13.9,4.31 -3.24,1.47 -6.5,3.57 -7.25,4.67 -0.75,1.1 -1.36,3.01 -1.36,4.25 0.01,1.24 -1.34,3.6 -2.99,5.25 -2.56,2.56 -3,3.77 -3.03,8.25 -0.03,4.02 0.45,5.72 2.03,7.25 1.53,1.48 2.06,3.23 2.03,6.75 -0.03,4.04 0.38,5.06 2.72,6.8 1.51,1.13 5,2.88 7.75,3.9 2.75,1.02 8.38,2.55 12.5,3.4 4.13,0.85 14.25,2.08 22.5,2.73 11.56,0.91 18.44,0.91 30,-0.01 8.25,-0.65 18.38,-1.88 22.5,-2.73 4.13,-0.85 9.75,-2.37 12.5,-3.39 2.75,-1.02 6.24,-3 7.75,-4.4 2.37,-2.2 2.76,-3.34 2.79,-8.3 0.04,-4 -0.43,-6.21 -1.54,-7.25 -0.87,-0.82 -1.55,-2.18 -1.51,-3 0.05,-0.82 1.2,-2.51 2.55,-3.75 1.99,-1.82 2.46,-3.21 2.46,-7.25 0,-4.93 0.04,-4.99 2.75,-4.43 1.51,0.32 7.03,1.23 12.25,2.02 5.23,0.8 9.6,1.55 9.72,1.68 0.12,0.13 -1.68,0.84 -4,1.59 -2.32,0.75 -6.36,2.44 -8.97,3.75 -2.61,1.32 -5.2,3.29 -5.75,4.39 -0.55,1.1 -1,4.02 -1,6.5 0,2.48 0.41,5.4 0.91,6.49 0.5,1.09 2.42,2.7 7.59,5.15 l -2.73,2.68 c -2.36,2.31 -2.74,3.51 -2.8,8.68 -0.04,4.25 0.4,6.44 1.53,7.5 0.97,0.91 1.56,3.06 1.52,5.5 -0.05,2.93 0.54,4.57 2.2,6.13 1.26,1.18 3.63,2.82 5.28,3.67 1.65,0.84 6.15,2.41 10,3.49 3.85,1.08 11.95,2.47 18,3.09 6.05,0.62 12.35,1.32 14,1.55 1.65,0.22 9.07,0.2 16.5,-0.05 z" /><path
       id="path22"
       style="fill:#000000;fill-opacity:0.99607843;fill-rule:nonzero;stroke:none"
       d="m 522.25,361.93 c 4.81,0.04 11.11,-0.42 14,-1.03 2.89,-0.6 8.4,-2.59 12.25,-4.41 3.85,-1.83 8.27,-4.37 12.66,-7.99 l -10.32,-10 -5.67,3.26 c -3.12,1.79 -7.92,3.75 -10.67,4.37 -2.75,0.61 -8.83,0.93 -13.5,0.71 -7.19,-0.33 -9.58,-0.92 -15.5,-3.84 -3.99,-1.96 -9.16,-5.6 -12.03,-8.47 -2.81,-2.81 -6.56,-8.11 -8.5,-12.01 -3.38,-6.8 -3.47,-7.29 -3.47,-19 0,-11.33 0.17,-12.37 2.98,-18.02 1.64,-3.3 5.46,-8.63 8.5,-11.84 3.41,-3.61 7.82,-6.97 11.52,-8.78 3.3,-1.61 9.15,-3.43 13,-4.05 5.15,-0.83 8.72,-0.83 13.5,-0.02 3.58,0.61 9.65,2.71 20.5,8.21 l 4.76,-4.76 c 2.62,-2.62 4.65,-5.14 4.5,-5.61 -0.14,-0.46 -3.18,-2.62 -6.76,-4.79 -3.58,-2.17 -9.65,-4.92 -13.5,-6.1 -4.91,-1.51 -9.68,-2.16 -16,-2.18 -4.95,-0.01 -11.48,0.58 -14.5,1.31 -3.02,0.74 -8.43,2.73 -12,4.43 -4.56,2.17 -8.92,5.49 -14.62,11.14 -5.41,5.36 -9.16,10.12 -11.25,14.29 -1.72,3.44 -3.81,8.84 -4.64,12 -0.84,3.21 -1.49,9.95 -1.48,15.25 0.01,5.23 0.67,11.98 1.48,15 0.81,3.02 2.91,8.43 4.68,12 2.16,4.38 5.67,8.94 10.77,14.01 4.26,4.23 10.18,8.9 13.56,10.69 3.3,1.75 8.48,3.86 11.5,4.68 3.02,0.82 9.44,1.52 14.25,1.55 z" /><path
       id="path24"
       style="fill:#000001;fill-opacity:0.31764706;fill-rule:nonzero;stroke:none"
       d="M 424.48,362.5 425,262 465.5,261.46 424,261 l 0.24,50.75 z" /><path
       id="path26"
       style="fill:#000000;fill-opacity:0.99607843;fill-rule:nonzero;stroke:none"
       d="m 409,362 h 15 V 261 h 50 v -15 h -65 v 58 z" /><path
       id="path28"
       style="fill:#000001;fill-opacity:0.31764706;fill-rule:nonzero;stroke:none"
       d="m 408.75,336.5 c 0.16,-14.3 0.16,-37.25 0,-51 -0.16,-13.75 -0.29,-2.05 -0.29,26 0,28.05 0.13,39.3 0.29,25 z" /><path
       id="path30"
       style="fill:#000001;fill-opacity:0.31764706;fill-rule:nonzero;stroke:none"
       d="m 523,362.65 c 4.67,0 6.48,-0.17 4,-0.38 -2.48,-0.21 -6.3,-0.21 -8.5,0 -2.2,0.21 -0.17,0.38 4.5,0.38 z" /><path
       id="path32"
       style="fill:#000001;fill-opacity:0.31764706;fill-rule:nonzero;stroke:none"
       d="m 186,387.61 c 7.43,0 10.35,-0.16 6.5,-0.35 -3.85,-0.19 -9.93,-0.19 -13.5,0 -3.57,0.19 -0.43,0.35 7,0.35 z" /><path
       id="path34"
       style="fill:#020203;fill-opacity:0.70588235;fill-rule:nonzero;stroke:none"
       d="m 623.72,404.5 c 0.22,-1.65 0.22,-4.8 0.01,-7 -0.22,-2.2 -0.4,-0.85 -0.4,3 -0.01,3.85 0.17,5.65 0.39,4 z" /><path
       id="path36"
       style="fill:#000001;fill-opacity:0.31764706;fill-rule:nonzero;stroke:none"
       d="m 544.74,409 c 0.19,-3.57 0.19,-9.65 0,-13.5 -0.19,-3.85 -0.35,-0.93 -0.35,6.5 0,7.43 0.16,10.57 0.35,7 z" /><path
       id="path38"
       style="fill:#020203;fill-opacity:0.70588235;fill-rule:nonzero;stroke:none"
       d="m 380.74,416.5 c 0.2,-2.75 0.2,-6.8 -0.01,-9 -0.21,-2.2 -0.38,0.05 -0.38,5 0.01,4.95 0.18,6.75 0.39,4 z" /><path
       id="path40"
       style="fill:#000000;fill-opacity:0.99607843;fill-rule:nonzero;stroke:none"
       d="m 483.74,408.5 c 0.27,-12.41 0.09,-14.28 -1.57,-16.5 -1.03,-1.37 -2.84,-2.61 -4.02,-2.75 -1.18,-0.14 -2.15,-0.02 -2.15,0.25 0,0.27 0.95,4.21 2.12,8.75 1.16,4.54 2.74,9.49 3.5,11 0.76,1.51 1.48,5.11 1.6,8 0.12,2.89 0.35,-1.05 0.52,-8.75 z" /><path
       id="path42"
       style="fill:#000001;fill-opacity:0.31764706;fill-rule:nonzero;stroke:none"
       d="m 484.25,425 c 0.41,0 0.69,-3.26 0.61,-7.25 -0.07,-3.99 -0.28,-6.35 -0.46,-5.25 -0.18,1.1 -0.45,4.36 -0.61,7.25 -0.16,2.89 0.05,5.25 0.46,5.25 z" /><path
       id="path44"
       style="fill:#000001;fill-opacity:0.31764706;fill-rule:nonzero;stroke:none"
       d="m 138.57,425 c 0.24,0 0.43,-4.05 0.43,-9 0,-4.95 -0.34,-9 -0.75,-9 -0.41,0 -0.61,4.05 -0.43,9 0.17,4.95 0.51,9 0.75,9 z" /><path
       id="path46"
       style="fill:#000001;fill-opacity:0.31764706;fill-rule:nonzero;stroke:none"
       d="m 430.74,428 c 0.2,-2.48 0.2,-6.75 0,-9.5 -0.21,-2.75 -0.38,-0.73 -0.38,4.5 0,5.23 0.17,7.48 0.38,5 z" /><path
       id="path48"
       style="fill:#000001;fill-opacity:0.31764706;fill-rule:nonzero;stroke:none"
       d="m 328.88,432.5 c 0.34,-2.2 0.37,-11.65 -0.48,-38 l -0.07,21 c -0.04,11.55 0.2,19.2 0.55,17 z" /><path
       id="path50"
       style="fill:#000001;fill-opacity:0.31764706;fill-rule:nonzero;stroke:none"
       d="M 581.5,440.59 564,440 l -0.38,-13.5 -0.44,5.89 c -0.24,3.24 -0.17,6.5 0.17,7.25 0.45,1.02 2.78,1.31 18.15,0.95 z" /><path
       id="path52"
       style="fill:#000001;fill-opacity:0.31764706;fill-rule:nonzero;stroke:none"
       d="m 437.42,441 c 0.26,-0.27 0.51,-7.7 0.56,-16.5 0.05,-8.8 -0.16,-16.23 -0.47,-16.5 -0.31,-0.27 -0.57,7.15 -0.57,16.5 0,9.35 0.22,16.77 0.48,16.5 z" /><path
       id="path54"
       style="fill:#020203;fill-opacity:0.70588235;fill-rule:nonzero;stroke:none"
       d="m 623.74,436 c 0.19,-4.12 0.19,-11.32 0,-16 -0.18,-4.68 -0.33,-1.3 -0.34,7.5 0,8.8 0.16,12.63 0.34,8.5 z" /><path
       id="path56"
       style="fill:#000000;fill-opacity:0.97254902;fill-rule:nonzero;stroke:none"
       d="m 455.5,442.5 0.5,-18.17 c 0.27,-9.99 0.88,-18.54 1.34,-19 0.45,-0.46 2.56,-0.83 4.68,-0.83 3.49,0 3.9,0.28 4.38,3 0.3,1.65 0.54,9.07 0.54,16.5 0.01,7.43 0.25,13.73 0.53,14 0.29,0.27 1.31,-0.28 2.27,-1.22 0.97,-0.95 3,-1.74 4.51,-1.75 2.23,-0.03 3.35,-1.01 5.94,-5.28 2.77,-4.56 3.16,-6.04 2.96,-11.25 -0.13,-3.3 -1.08,-8.25 -2.12,-11 -1.04,-2.75 -2.72,-8.15 -5.6,-19 L 439,388 l -0.42,2.75 c -0.23,1.51 -0.48,12.65 -0.55,24.75 -0.12,21.73 -0.09,22.03 2.18,24.12 1.26,1.17 2.97,2.38 3.79,2.7 0.82,0.31 3.75,0.48 11.5,0.18 z" /><path
       id="path58"
       style="fill:#000001;fill-opacity:0.31764706;fill-rule:nonzero;stroke:none"
       d="m 456.74,446 c 0.19,-4.12 0.19,-11.32 0,-16 -0.18,-4.68 -0.33,-1.3 -0.34,7.5 0,8.8 0.16,12.63 0.34,8.5 z" /><path
       id="path60"
       style="fill:#000001;fill-opacity:0.31764706;fill-rule:nonzero;stroke:none"
       d="m 484.74,448.5 c 0.19,-3.85 0.19,-10.6 0,-15 -0.18,-4.4 -0.34,-1.25 -0.34,7 0,8.25 0.15,11.85 0.34,8 z" /><path
       id="path62"
       style="fill:#020203;fill-opacity:0.70588235;fill-rule:nonzero;stroke:none"
       d="m 399.5,459 c 0.27,0 0.5,-2.93 0.5,-6.5 0,-5.5 -0.22,-6.31 -1.4,-5.25 -0.77,0.69 -1,1.36 -0.5,1.5 0.49,0.14 0.9,2.5 0.9,5.25 0,2.75 0.23,5 0.5,5 z" /><path
       id="path64"
       style="fill:#000001;fill-opacity:0.31764706;fill-rule:nonzero;stroke:none"
       d="m 138.74,464.5 c 0.2,-2.75 0.2,-6.8 -0.01,-9 -0.21,-2.2 -0.38,0.05 -0.38,5 0.01,4.95 0.18,6.75 0.39,4 z" /><path
       id="path66"
       style="fill:#000001;fill-opacity:0.31764706;fill-rule:nonzero;stroke:none"
       d="m 157.74,472 c 0.2,-3.02 0.2,-8.2 0,-11.5 -0.2,-3.3 -0.36,-0.82 -0.36,5.5 0,6.32 0.16,9.02 0.36,6 z" /><path
       id="path68"
       style="fill:#000001;fill-opacity:0.31764706;fill-rule:nonzero;stroke:none"
       d="m 605.74,475 c 0.19,-4.68 0.19,-12.55 0,-17.5 -0.18,-4.95 -0.33,-1.12 -0.33,8.5 0,9.63 0.15,13.68 0.33,9 z" /><path
       id="path70"
       style="fill:#000001;fill-opacity:0.31764706;fill-rule:nonzero;stroke:none"
       d="m 624.53,485 c 0.26,0 0.37,-6.19 0.04,-27.5 l -0.29,11.75 c -0.16,6.98 -0.69,11.75 -1.28,11.75 -0.66,0.01 -0.65,0.68 0.03,2 0.56,1.1 1.24,2 1.5,2 z" /><path
       id="path72"
       style="fill:#000001;fill-opacity:0.31764706;fill-rule:nonzero;stroke:none"
       d="m 138.74,494.5 c 0.19,-4.4 0.19,-11.82 0,-16.5 -0.18,-4.68 -0.33,-1.07 -0.33,8 0,9.07 0.15,12.9 0.33,8.5 z" /><path
       id="path74"
       style="fill:#000001;fill-opacity:0.31764706;fill-rule:nonzero;stroke:none"
       d="m 436.73,502 c 0.21,-1.93 0.21,-5.52 0,-8 -0.21,-2.48 -0.38,-0.9 -0.39,3.5 0,4.4 0.17,6.43 0.39,4.5 z" /><path
       id="path76"
       style="fill:#000001;fill-opacity:0.31764706;fill-rule:nonzero;stroke:none"
       d="m 328.74,498 c 0.19,-4.12 0.19,-11.1 0,-15.5 -0.18,-4.4 -0.34,-1.02 -0.34,7.5 0,8.52 0.16,12.13 0.34,8 z" /><path
       id="path78"
       style="fill:#000000;fill-opacity:0.99607843;fill-rule:nonzero;stroke:none"
       d="m 598.22,505.76 c 2.91,0.1 5.73,-0.25 6.28,-0.79 0.66,-0.65 2.03,-0.62 4,0.07 1.65,0.59 7.73,0.98 13.5,0.88 5.77,-0.1 11.29,-0.58 12.25,-1.05 1.45,-0.72 1.75,-2.25 1.75,-16.87 l -5.75,-0.58 c -5.16,-0.52 -5.88,-0.88 -7,-3.5 -0.76,-1.78 -0.86,-2.92 -0.25,-2.92 0.66,0 0.8,-15.53 0.41,-45.75 -0.32,-25.16 -0.72,-45.98 -0.88,-46.25 -0.17,-0.27 -3.17,-0.89 -6.67,-1.36 -4.15,-0.57 -7.05,-0.5 -8.36,0.18 -1.96,1.03 -2,2.06 -2,99.68 l -5.5,-0.25 c -3.37,-0.16 -6,0.23 -6.79,1 -0.82,0.78 -1.34,4.09 -1.42,8.83 -0.07,4.17 0.17,7.79 0.52,8.03 0.35,0.25 3.01,0.54 5.91,0.65 z" /><path
       id="path80"
       style="fill:#000000;fill-opacity:0.99607843;fill-rule:nonzero;stroke:none"
       d="m 558.24,505.32 c 6.74,-0.09 12.49,-0.25 12.76,-0.34 0.27,-0.09 3.65,-0.24 14.5,-0.48 l 0.5,-15.5 -22.5,-0.5 -0.25,-12.25 c -0.19,-9.3 -0.61,-12.61 -1.75,-13.75 -0.83,-0.82 -1.46,-2.29 -1.42,-3.25 0.04,-0.96 0.27,-1.19 0.5,-0.5 0.34,1 0.75,1 2.07,0 1.1,-0.83 4.6,-1.17 10.5,-1 5.65,0.16 8.67,-0.11 8.35,-0.75 -0.27,-0.55 0.17,-1 1,-1 1.22,0 1.45,-1.34 1.25,-7.05 -0.22,-6.12 -0.51,-7.1 -2.25,-7.49 -1.1,-0.25 -5.6,-0.57 -18,-0.96 L 563,428 c -0.27,-6.87 -0.27,-14.98 0.5,-23.5 l 9,-0.62 c 4.95,-0.35 9.79,-0.91 10.75,-1.25 1.39,-0.5 1.75,-1.8 1.73,-6.38 0,-3.16 -0.34,-6.29 -0.75,-6.95 -0.4,-0.65 -1.63,-1.17 -2.73,-1.15 -1.1,0.02 -9.31,0 -18.25,-0.06 -8.94,-0.05 -16.7,0.14 -17.25,0.41 -0.64,0.32 -0.91,9.55 -0.75,25.4 0.22,21.69 0.04,25.13 -1.36,26.75 -1.06,1.22 -1.69,4.08 -1.84,8.35 -0.15,4.42 0.2,6.88 1.11,7.67 0.9,0.79 1.26,3.16 1.09,7.25 -0.14,3.34 0.09,6.26 0.5,6.49 0.41,0.22 0.69,4.83 0.62,10.25 -0.08,5.41 -0.26,12.32 -0.41,15.34 -0.15,3.02 0.01,6.4 0.37,7.5 0.6,1.87 1.45,1.99 12.91,1.82 z" /><path
       id="path82"
       style="fill:#000000;fill-opacity:0.99607843;fill-rule:nonzero;stroke:none"
       d="m 463.5,505.31 c 7.15,-0.11 14.24,-0.67 15.75,-1.25 1.51,-0.58 3.2,-1.96 3.75,-3.06 0.61,-1.22 1,-16.17 1,-38.5 0,-23.67 -0.35,-36.5 -1,-36.5 -0.55,0 -2.12,2.02 -3.5,4.5 -2.04,3.67 -3.01,4.49 -5.25,4.46 -1.51,-0.03 -3.43,0.67 -4.25,1.54 -0.82,0.87 -1.95,1.57 -2.5,1.54 -0.63,-0.02 -1.09,9.09 -1.25,24.96 -0.18,18.29 -0.59,25.37 -1.5,26.39 -0.99,1.11 -2.29,1.19 -6.25,0.41 -2.77,-0.55 -4.42,-1.28 -3.7,-1.64 0.91,-0.46 1.46,-4.16 1.83,-12.16 0.29,-6.32 0.23,-16.45 -0.8,-33.5 h -6.34 c -5.39,0 -6.72,-0.37 -11.54,-5 l -0.01,12.5 c -0.01,6.88 -0.22,22.06 -0.94,55 l 6.75,0.25 c 3.71,0.14 12.6,0.16 19.75,0.06 z" /><path
       id="path84"
       style="fill:#000000;fill-opacity:0.99607843;fill-rule:nonzero;stroke:none"
       d="m 389.9,505.25 c 4.99,-0.15 7.91,-0.63 7.6,-1.25 -0.27,-0.55 -0.05,-1 0.5,-1 0.64,0 1,-9.67 1,-27 0,-20.93 -0.28,-27 -1.25,-27.02 -0.98,-0.01 -0.99,-0.17 -0.02,-0.75 0.93,-0.55 1.18,-6.08 1,-22.43 -0.22,-20.95 -0.16,-21.71 1.77,-22.22 1.1,-0.29 2.11,-0.09 2.25,0.45 0.14,0.53 1.15,0.97 2.25,0.97 1.1,0 2,-0.45 2,-1 0,-0.55 1.12,-0.89 2.48,-0.75 1.36,0.14 2.6,-0.09 2.75,-0.5 0.15,-0.41 0.22,3.86 0.17,9.5 -0.06,5.64 0.28,10.81 0.75,11.5 0.5,0.74 0.34,1.93 -0.4,2.91 -1,1.33 -1,1.73 0,2 0.69,0.19 1.02,0.79 0.75,1.34 -0.27,0.55 -0.79,15.74 -1.13,33.75 -0.35,18.01 -0.35,34.44 0.63,40.25 h 8 c 5.69,0 8.02,-0.36 8.08,-1.25 0.05,-0.69 0.28,-3.16 0.5,-5.5 0.23,-2.34 -0.03,-4.48 -0.58,-4.75 -0.55,-0.27 -1,-1.4 -1,-2.5 0,-1.1 0.34,-2 0.75,-2 0.41,0 0.92,-3.71 1.12,-8.25 0.21,-4.54 0.47,-15.68 0.58,-24.75 0.11,-9.07 -0.06,-26.5 -0.95,-60.94 l -5.55,-5.56 -18.73,-0.33 c -17.46,-0.31 -18.89,-0.19 -23.72,3.65 l -0.25,31.59 c -0.16,20.81 0.09,31.42 0.75,31.09 0.55,-0.27 1,-0.05 1,0.5 0,0.55 -0.45,1 -1,1 -0.58,0 -1,3.33 -1,8 0,5.76 0.35,7.99 1.25,7.96 0.9,-0.04 0.96,0.31 0.19,1.25 -0.6,0.73 -1.22,7.74 -1.44,16.09 -0.2,8.15 -0.11,15.12 0.21,15.5 0.33,0.39 4.24,0.59 8.69,0.45 z" /><path
       id="path86"
       style="fill:#000000;fill-opacity:0.99607843;fill-rule:evenodd;stroke:none"
       d="m 350.21,505.62 c 16.55,-0.11 18.92,-0.33 20.5,-1.91 1.59,-1.59 1.8,-4 1.89,-22 0.06,-11.12 -0.28,-21.9 -0.75,-23.96 -0.47,-2.06 -1.7,-4.31 -2.75,-5 -1.82,-1.2 -1.76,-1.42 4.4,-8.96 l 0.2,-22.64 c 0.12,-12.46 -0.22,-24.11 -0.75,-25.9 -0.52,-1.79 -2.17,-4.04 -3.65,-5 -2.28,-1.47 -5.54,-1.79 -20.5,-2 -9.79,-0.14 -18.36,0.03 -19.05,0.38 -0.95,0.47 -0.89,0.82 0.25,1.43 1.25,0.67 1.3,1.23 0.25,3.37 -0.9,1.85 -1.2,8.65 -1.08,24.32 0.14,18.87 -0.06,22.08 -1.51,24.25 -1.04,1.55 -1.67,4.49 -1.67,7.75 0.01,3.59 0.56,5.86 1.76,7.17 1.58,1.74 1.72,4.15 1.45,24.75 -0.24,18 -0.03,22.96 0.99,23.45 0.72,0.34 9.73,0.57 20.02,0.5 z m -3.58,-24.32 c -0.42,-4.84 -0.71,-9.25 -0.65,-9.8 0.06,-0.55 0.32,-3.59 0.57,-6.75 0.42,-5.33 0.65,-5.79 3.2,-6.29 1.51,-0.29 3.43,-0.3 4.25,-0.01 1.25,0.44 1.48,3.03 1.36,15.79 l -0.15,15.26 -7.81,0.6 z m 0.05,-61.65 c -0.11,-9.05 0.21,-15.06 0.82,-15.4 0.55,-0.31 2.28,-0.61 3.84,-0.66 1.56,-0.05 3.09,0.36 3.41,0.91 0.31,0.55 0.49,3.59 0.41,6.75 C 355.07,414.41 355,422.4 355,429 v 12 c -7.83,0 -8,-0.14 -8.07,-3.25 -0.03,-1.79 -0.14,-9.93 -0.25,-18.1 z" /><path
       id="path88"
       style="fill:#020203;fill-opacity:0.70588235;fill-rule:nonzero;stroke:none"
       d="m 355.74,435.5 c 0.2,-3.3 0.2,-8.93 0,-12.5 -0.19,-3.57 -0.35,-0.87 -0.35,6 0,6.88 0.16,9.8 0.35,6.5 z" /><path
       id="path90"
       style="fill:#000001;fill-opacity:0.31764706;fill-rule:nonzero;stroke:none"
       d="m 355.72,485.67 c 0.43,-0.45 0.64,-3.38 0.46,-6.5 -0.17,-3.12 -0.52,-5.9 -0.78,-6.17 -0.25,-0.27 -0.46,2.65 -0.46,6.5 0,3.85 0.35,6.63 0.78,6.17 z" /><path
       id="path92"
       style="fill:#000000;fill-opacity:0.99607843;fill-rule:evenodd;stroke:none"
       d="m 181.93,505.61 c 9.66,-0.24 18.7,-0.71 20.07,-1.04 1.77,-0.43 2.86,-1.7 3.72,-4.34 0.92,-2.8 1.13,-16.08 0.84,-53.23 -0.32,-42.42 -0.61,-50.04 -1.97,-53.25 -0.87,-2.06 -2.49,-4.2 -3.59,-4.75 -1.1,-0.55 -9.31,-0.98 -18.25,-0.96 -10.79,0.02 -17,0.44 -18.48,1.25 -1.23,0.66 -3.07,2.78 -4.09,4.71 -1.74,3.27 -1.88,6.83 -2.02,54.25 -0.13,39.51 0.11,50.58 1.05,50 0.88,-0.54 1.02,-0.13 0.5,1.5 -0.55,1.75 -0.11,2.7 1.97,4.28 2.5,1.9 3.77,2 20.25,1.58 z m -5.63,-59.11 -0.2,-41 c 9.61,0.32 12.85,0.41 13.4,0.41 0.55,0 0.32,0.77 -0.5,1.7 -1.28,1.45 -1.5,7.54 -1.5,41.43 v 39.73 c -5.57,-0.21 -8.05,-0.5 -9.09,-0.77 -1.84,-0.48 -1.92,-2.11 -2.11,-41.5 z" /><path
       id="path94"
       style="fill:#000001;fill-opacity:0.31764706;fill-rule:nonzero;stroke:none"
       d="m 187.73,459.5 c 0.21,-2.2 0.21,-6.02 0,-8.5 -0.21,-2.48 -0.38,-0.68 -0.38,4 0,4.68 0.17,6.7 0.38,4.5 z m -10.99,17 c 0.2,-2.75 0.2,-7.7 0,-11 -0.2,-3.3 -0.36,-1.05 -0.37,5 0,6.05 0.16,8.75 0.37,6 z" /><path
       id="path96"
       style="fill:#000000;fill-opacity:0.99607843;fill-rule:nonzero;stroke:none"
       d="m 129.5,506 c 6.97,0 7.53,-0.16 7.97,-2.25 0.25,-1.24 0.49,-17.77 0.51,-36.75 0.04,-26.8 -0.23,-34.68 -1.21,-35.33 -1.01,-0.65 -1.01,-0.91 -0.02,-1.25 0.9,-0.3 1.25,-3.51 1.25,-11.42 0,-6.67 -0.39,-11 -1,-11 -0.55,0 -1,-0.68 -1,-1.5 0,-0.82 0.56,-1.82 1.25,-2.21 0.69,-0.4 4.06,-0.62 7.5,-0.5 5.72,0.19 6.3,0.02 6.85,-2.04 0.33,-1.24 0.48,-4.05 0.33,-6.25 -0.15,-2.2 -0.6,-4.68 -1,-5.5 -0.59,-1.21 -3.6,-1.56 -15.58,-1.84 -11.65,-0.26 -14.99,-0.04 -15.49,1 -0.36,0.74 -0.69,13.94 -0.74,29.34 -0.07,21.23 0.21,28.18 1.15,28.75 0.94,0.57 0.88,0.98 -0.27,1.71 -1.21,0.77 -1.26,1.2 -0.23,2.25 0.69,0.71 1.26,1.63 1.25,2.04 -0.01,0.41 -0.47,0.52 -1.02,0.25 -0.55,-0.27 -1,-0.05 -1,0.5 0,0.55 0.45,1 1,1 0.55,0 1,0.45 1,1 0,0.55 -0.34,0.82 -0.75,0.59 -0.41,-0.22 -0.86,5.85 -1,13.5 -0.15,8.53 0.14,14.1 0.75,14.41 0.55,0.27 0.89,1.85 0.75,3.5 -0.14,1.65 -0.59,3 -1,3 -0.41,0 -0.64,3.04 -0.5,6.75 0.18,4.76 0.62,6.68 1.5,6.5 0.69,-0.14 1.25,0.2 1.25,0.75 0,0.58 3.17,1 7.5,1 z" /><path
       id="path98"
       style="fill:#000000;fill-opacity:0.99607843;fill-rule:nonzero;stroke:none"
       d="m 289.39,505.99 c 0.61,-0.33 2.68,-0.74 4.61,-0.92 1.93,-0.18 4.06,-0.94 4.75,-1.7 0.69,-0.75 1.24,-2.38 1.23,-3.62 -0.01,-1.24 -0.73,-5.4 -1.61,-9.25 -0.87,-3.85 -1.82,-7.68 -2.1,-8.5 -0.27,-0.82 -0.65,-3.52 -0.82,-6 -0.18,-2.48 -1,-8.32 -1.83,-13 -0.83,-4.68 -1.76,-9.62 -2.07,-11 -0.31,-1.37 -1.04,-5.2 -1.63,-8.5 -0.59,-3.3 -1.09,-6.68 -1.1,-7.5 -0.02,-0.82 -0.65,-4.43 -1.39,-8 -0.75,-3.57 -2.1,-11 -3.01,-16.5 -0.9,-5.5 -1.81,-10.9 -2.01,-12 -0.21,-1.1 -0.69,-3.35 -1.08,-5 -0.38,-1.65 -0.73,-3.68 -0.76,-4.5 -0.05,-1.05 -1.42,-1.6 -4.57,-1.82 -2.48,-0.17 -6.07,0.08 -8,0.57 -1.97,0.49 -3.5,1.51 -3.5,2.31 0,0.79 -0.28,1.67 -0.63,1.94 -0.34,0.27 -2.03,8.82 -3.76,19 -1.72,10.18 -3.13,19.51 -3.12,20.75 0.01,1.24 -0.33,2.24 -0.74,2.23 -0.41,0 -1.24,-0.34 -1.84,-0.75 -0.61,-0.4 -1.11,-3.21 -1.13,-6.23 -0.01,-3.02 -0.79,-11.57 -1.72,-19 -0.94,-7.43 -2.12,-15.19 -3.56,-21 l -6.75,0.04 c -5.73,0.04 -7.02,0.37 -8.53,2.25 -0.98,1.22 -1.8,3.11 -1.83,4.21 -0.03,1.1 -0.26,3.35 -0.52,5 -0.25,1.65 -0.89,5.48 -1.41,8.5 -0.52,3.02 -1.83,10.45 -2.9,16.5 -1.07,6.05 -2.87,16.18 -4,22.5 -1.13,6.32 -3.2,18.25 -4.59,26.5 -1.39,8.25 -2.74,15.34 -3,15.75 -0.26,0.41 -0.81,4.09 -1.97,15.59 l 7.5,0.37 c 4.32,0.21 8.01,-0.07 8.7,-0.67 0.65,-0.57 1.33,-3.63 1.5,-6.79 0.16,-3.16 0.64,-5.74 1.05,-5.75 0.41,0 0.7,-1.46 0.65,-3.25 -0.06,-1.79 -0.02,-3.48 0.08,-3.75 0.09,-0.27 0.34,-1.4 0.55,-2.5 0.2,-1.1 0.63,-4.02 0.95,-6.5 0.31,-2.48 1.5,-10.8 2.64,-18.5 1.13,-7.7 2.29,-14.45 2.58,-15 0.34,-0.67 0.83,-0.67 1.47,0 0.52,0.55 1.08,3.25 1.23,6 0.19,3.28 0.77,5.12 1.69,5.36 1.15,0.29 1.16,0.48 0.08,1 -1.11,0.53 -1.06,2.87 0.27,13.64 0.89,7.15 1.89,15.25 2.23,18 0.34,2.75 0.79,6.13 1,7.5 0.21,1.38 0.37,4.19 0.36,6.25 -0.03,3.68 0.05,3.76 4.22,4.23 2.34,0.26 6.05,0.34 8.25,0.17 3.67,-0.27 4.06,-0.58 4.69,-3.72 0.38,-1.89 0.97,-6.8 1.32,-10.93 0.35,-4.12 1.06,-10.2 1.58,-13.5 0.51,-3.3 1.21,-10.05 1.55,-15 0.34,-4.95 1.13,-9.58 1.74,-10.29 0.85,-0.99 0.76,-1.28 -0.38,-1.24 -1.21,0.05 -1.26,-0.18 -0.23,-1.2 0.69,-0.7 1.26,-2.73 1.25,-4.52 -0.01,-1.79 0.43,-3.48 0.98,-3.75 0.55,-0.27 1.23,0.06 1.5,0.75 0.28,0.69 0.69,3.27 0.93,5.75 0.23,2.48 0.9,8.32 1.48,13 0.58,4.68 2.04,14.8 3.24,22.5 1.49,9.6 2.68,14.38 3.76,15.22 1.05,0.81 1.17,1.22 0.34,1.25 -0.69,0.02 -1.25,1.16 -1.25,2.53 0,1.78 0.43,2.36 1.5,2 0.92,-0.31 1.41,0.05 1.26,0.93 -0.13,0.78 0.61,1.59 1.64,1.79 1.04,0.2 2.39,0.1 2.99,-0.23 z" /><path
       id="path100"
       style="fill:#000000;fill-opacity:0.99607843;fill-rule:nonzero;stroke:none"
       d="m 516.11,506.38 c 9.18,-0.07 16.3,-0.58 17.64,-1.25 1.24,-0.62 2.74,-2.14 3.34,-3.38 0.59,-1.24 0.76,-2.93 0.37,-3.75 -0.4,-0.82 -0.66,-5.66 -0.46,-20 l -7.75,0.02 c -4.26,0 -7.18,0.34 -6.47,0.75 0.78,0.45 1,1.5 0.57,2.73 -0.38,1.1 -0.73,3.57 -0.85,9 h -12.75 l -0.12,-42.74 c -0.1,-33.35 0.14,-42.85 1.12,-43.25 0.69,-0.28 2.6,-0.51 4.25,-0.51 1.75,0 2.99,-0.52 2.97,-1.25 -0.02,-0.69 1.1,-0.01 2.5,1.5 1.39,1.51 2.78,3.76 3.09,5 0.34,1.34 -0.04,2.86 -0.94,3.75 -1.18,1.18 -1.51,4.34 -1.53,15 -0.03,12.49 -0.19,13.61 -2.11,15 -1.69,1.23 -2.06,2.55 -2.03,7.25 0.03,3.56 0.59,6.32 1.48,7.25 1.05,1.11 3.68,1.5 10,1.5 6.73,0 8.68,-0.32 9.07,-1.5 0.27,-0.82 0.5,-15.45 0.5,-32.5 0,-20.33 -0.34,-30.83 -1,-30.5 -0.55,0.27 -0.89,-0.29 -0.75,-1.25 0.16,-1.12 -0.99,-2.36 -3.25,-3.49 -2.96,-1.48 -5.93,-1.71 -19.23,-1.5 -15.72,0.24 -15.73,0.24 -21.27,5.79 l -0.06,43.22 c -0.04,23.78 -0.38,43.79 -0.75,44.48 -0.38,0.69 -0.24,5.41 0.32,10.5 0.56,5.09 1.42,9.88 1.93,10.65 0.51,0.78 2.24,1.9 3.85,2.5 1.72,0.65 9.28,1.05 18.32,0.98 z" /><path
       id="path102"
       style="fill:#000001;fill-opacity:0.31764706;fill-rule:nonzero;stroke:none"
       d="m 514.5,506.62 c 6.6,0 9.52,-0.16 6.5,-0.36 -3.02,-0.19 -8.42,-0.2 -12,0 -3.57,0.19 -1.1,0.36 5.5,0.36 z" /><path
       id="path104"
       style="fill:#000001;fill-opacity:0.31764706;fill-rule:nonzero;stroke:none"
       d="m 531.25,459.86 c 3.71,0.08 6.75,-0.2 6.75,-0.61 0,-0.41 -2.14,-0.62 -4.75,-0.46 -2.61,0.16 -5.65,0.44 -6.75,0.62 -1.1,0.17 1.04,0.38 4.75,0.45 z" /><path
       id="path106"
       style="fill:#000001;fill-opacity:0.31764706;fill-rule:nonzero;stroke:none"
       d="m 510.75,438.5 c 0.17,-5.5 0.17,-14.95 0,-21 -0.18,-6.05 -0.33,-1.55 -0.33,10 0,11.55 0.15,16.5 0.33,11 z" /><path
       id="path108"
       style="fill:#000001;fill-opacity:0.31764706;fill-rule:nonzero;stroke:none"
       d="m 538.74,441 c 0.2,-2.48 0.2,-6.75 0,-9.5 -0.21,-2.75 -0.38,-0.73 -0.38,4.5 0,5.23 0.17,7.48 0.38,5 z" /><path
       id="path110"
       style="fill:#000001;fill-opacity:0.31764706;fill-rule:nonzero;stroke:none"
       d="m 491.43,431 c 0.27,-0.27 0.52,-5.68 0.56,-12 0.05,-6.32 -0.18,-11.73 -0.48,-12 -0.31,-0.27 -0.57,5.13 -0.57,12 0,6.88 0.22,12.27 0.49,12 z" /><path
       id="path112"
       style="fill:#000001;fill-opacity:0.31764706;fill-rule:nonzero;stroke:none"
       d="m 538.73,422.5 c 0.21,-2.2 0.21,-5.57 0,-7.5 -0.22,-1.93 -0.39,-0.12 -0.39,4 0,4.13 0.17,5.7 0.39,3.5 z" /><path
       id="path114"
       style="fill:#000001;fill-opacity:0.31764706;fill-rule:nonzero;stroke:none"
       d="m 538.73,406.5 c 0.21,-2.2 0.21,-5.57 0,-7.5 -0.22,-1.93 -0.39,-0.12 -0.39,4 0,4.13 0.17,5.7 0.39,3.5 z" /><path
       id="path116"
       style="fill:#000000;fill-opacity:0.99607843;fill-rule:nonzero;stroke:none"
       d="m 601.75,361.93 c 5.04,0.05 8.85,-0.55 12.5,-1.96 2.89,-1.12 7.23,-3.71 9.65,-5.75 2.41,-2.05 5.42,-5.52 6.67,-7.72 1.25,-2.2 2.42,-4.87 2.6,-5.94 0.28,-1.63 -0.62,-2.14 -5.67,-3.2 -3.3,-0.7 -6.56,-1.29 -7.25,-1.32 -0.69,-0.02 -2.11,1.42 -3.17,3.21 -1.05,1.79 -3.86,4.33 -6.25,5.65 -3.49,1.93 -5.41,2.32 -9.9,2 -4.1,-0.3 -6.54,-1.12 -9.25,-3.15 -2.02,-1.51 -4.44,-4.21 -5.36,-6 -0.93,-1.79 -1.71,-5.58 -1.75,-8.42 -0.05,-3.76 0.5,-5.95 2.02,-8 1.15,-1.56 3.63,-3.86 5.5,-5.12 1.88,-1.26 5.43,-3.01 7.91,-3.91 2.48,-0.89 7.88,-2.89 12,-4.45 4.13,-1.56 9.73,-4.52 12.45,-6.59 2.72,-2.07 6.23,-5.56 7.8,-7.76 1.57,-2.2 3.45,-6.48 4.18,-9.5 0.96,-3.92 1.08,-6.93 0.42,-10.5 -0.5,-2.75 -1.91,-6.97 -3.13,-9.39 -1.22,-2.41 -4.02,-6.19 -6.22,-8.4 -2.2,-2.21 -6.92,-5.41 -10.5,-7.12 -5.69,-2.7 -7.56,-3.09 -15,-3.09 -7,0 -9.47,0.45 -14,2.55 -3.02,1.4 -7.52,4.38 -10,6.61 -2.48,2.24 -5.62,6.13 -7,8.65 -1.37,2.52 -2.27,4.8 -2,5.08 0.27,0.28 3.65,1.17 7.5,1.99 5.31,1.13 7.11,1.21 7.46,0.31 0.25,-0.66 1.42,-2.31 2.59,-3.69 1.17,-1.37 4.57,-3.57 7.54,-4.87 4.25,-1.86 6.37,-2.23 9.91,-1.72 2.48,0.36 6.41,1.76 8.75,3.12 2.34,1.36 5.24,3.93 6.44,5.72 1.2,1.79 2.39,5.05 2.63,7.25 0.29,2.63 -0.2,5.34 -1.44,7.93 -1.03,2.16 -3.46,4.98 -5.38,6.26 -1.92,1.28 -8.9,4.26 -15.5,6.62 -6.6,2.36 -14.14,5.74 -16.75,7.49 -2.61,1.76 -5.82,4.66 -7.13,6.45 -1.31,1.79 -3.17,4.82 -4.14,6.75 -0.96,1.93 -1.97,5.98 -2.24,9 -0.31,3.45 0.09,7.55 1.08,11 0.87,3.02 2.92,7.52 4.55,10 1.63,2.48 4.91,5.93 7.3,7.68 2.38,1.75 6.13,3.86 8.33,4.68 2.2,0.82 7.26,1.53 11.25,1.57 z" /></g></svg>